<svg width="34" height="34" viewBox="0 0 34 34" fill="none" xmlns="http://www.w3.org/2000/svg">
<path d="M16.6983 0C26.1641 0 33.33 7.76087 33.33 16.64C33.33 26.9377 24.9308 33.33 16.665 33.33C13.9319 33.33 10.8989 32.5956 8.46582 31.1603C7.61591 30.6429 6.89931 30.259 5.98274 30.5595L2.61641 31.5609C1.76649 31.8279 0.9999 31.1603 1.24988 30.259L2.36643 26.5205C2.54975 26.0031 2.51642 25.4523 2.24978 25.0184C0.816585 22.3813 0 19.494 0 16.69C0 7.91108 7.01597 0 16.6983 0ZM24.3142 14.5704C23.131 14.5704 22.1811 15.5217 22.1811 16.7067C22.1811 17.875 23.131 18.8431 24.3142 18.8431C25.4975 18.8431 26.4474 17.875 26.4474 16.7067C26.4474 15.5217 25.4975 14.5704 24.3142 14.5704ZM16.6317 14.5704C15.4651 14.5537 14.4986 15.5217 14.4986 16.69C14.4986 17.875 15.4485 18.8264 16.6317 18.8431C17.8149 18.8431 18.7648 17.875 18.7648 16.7067C18.7648 15.5217 17.8149 14.5704 16.6317 14.5704ZM8.94911 14.5704C7.76589 14.5704 6.81599 15.5217 6.81599 16.7067C6.81599 17.875 7.78256 18.8431 8.94911 18.8431C10.1323 18.8264 11.0822 17.875 11.0822 16.7067C11.0822 15.5217 10.1323 14.5704 8.94911 14.5704Z" fill="#BDBDBD"/>
</svg>
