<svg width="40" height="40" viewBox="0 0 40 40" fill="none" xmlns="http://www.w3.org/2000/svg">
<path opacity="0.4" d="M37.0833 29.6716C37.0833 33.7566 33.6995 37.0833 29.5424 37.0833L21.2738 37.0833C17.1252 37.0833 13.7499 33.7666 13.7499 29.6883L13.7499 11.1616C13.7499 7.07495 17.1336 3.74995 21.2925 3.74995L29.5576 3.74995C33.708 3.74995 37.0832 7.06662 37.0832 11.145L37.0832 12.7116L37.0833 29.6716Z" fill="#BDBDBD"/>
<path d="M4.11847 21.3252L8.86145 26.1736C9.35166 26.6736 10.1405 26.6736 10.6291 26.1702C11.1161 25.6669 11.1145 24.8552 10.6259 24.3552L8.02713 21.7002L10.5187 21.7002L24.5026 21.7002C25.1924 21.7002 25.7524 21.1252 25.7524 20.4169C25.7524 19.7069 25.1924 19.1336 24.5026 19.1336L8.02713 19.1336L10.6259 16.4786C11.1145 15.9786 11.1161 15.1669 10.6291 14.6636C10.384 14.4119 10.0642 14.2852 9.74285 14.2852C9.4247 14.2852 9.10493 14.4119 8.86145 14.6602L4.11847 19.5069C3.88311 19.7486 3.75001 20.0752 3.75001 20.4169C3.75001 20.7569 3.88311 21.0836 4.11847 21.3252Z" fill="#BDBDBD"/>
</svg>
