<svg width="41" height="53" viewBox="0 0 41 53" fill="none" xmlns="http://www.w3.org/2000/svg">
<path fill-rule="evenodd" clip-rule="evenodd" d="M16.8824 0.0326355C16.8824 0.0524125 16.7372 0.0652709 16.5139 0.0652709C16.2906 0.0652709 16.1454 0.0781293 16.1454 0.0979064C16.1454 0.117259 16.0226 0.130542 15.844 0.130542C15.6653 0.130542 15.5425 0.143824 15.5425 0.163177C15.5425 0.181812 15.442 0.195813 15.308 0.195813C15.174 0.195813 15.0735 0.209813 15.0735 0.228448C15.0735 0.246593 14.9842 0.261084 14.8725 0.261084C14.7609 0.261084 14.6716 0.275574 14.6716 0.293719C14.6716 0.311864 14.5822 0.326354 14.4706 0.326354C14.3589 0.326354 14.2696 0.340845 14.2696 0.35899C14.2696 0.376939 14.1942 0.391625 14.1021 0.391625C14.01 0.391625 13.9346 0.406311 13.9346 0.424261C13.9346 0.44221 13.8743 0.456896 13.8007 0.456896C13.727 0.456896 13.6667 0.471582 13.6667 0.489532C13.6667 0.507481 13.5913 0.522167 13.4992 0.522167C13.4071 0.522167 13.3317 0.536853 13.3317 0.554803C13.3317 0.572752 13.2714 0.587438 13.1977 0.587438C13.124 0.587438 13.0637 0.602124 13.0637 0.620074C13.0637 0.638023 13.0034 0.652709 12.9297 0.652709C12.856 0.652709 12.7958 0.667395 12.7958 0.685344C12.7958 0.703294 12.7355 0.71798 12.6618 0.71798C12.5881 0.71798 12.5278 0.732666 12.5278 0.750615C12.5278 0.768565 12.4826 0.783251 12.4273 0.783251C12.372 0.783251 12.3268 0.797937 12.3268 0.815886C12.3268 0.833836 12.2665 0.848522 12.1928 0.848522C12.1191 0.848522 12.0588 0.863208 12.0588 0.881157C12.0588 0.899107 12.0136 0.913793 11.9583 0.913793C11.9031 0.913793 11.8578 0.928479 11.8578 0.946428C11.8578 0.964378 11.8126 0.979063 11.7574 0.979063C11.7021 0.979063 11.6569 0.993749 11.6569 1.0117C11.6569 1.02965 11.6116 1.04433 11.5564 1.04433C11.5011 1.04433 11.4559 1.05902 11.4559 1.07697C11.4559 1.09492 11.4107 1.10961 11.3554 1.10961C11.3001 1.10961 11.2549 1.12429 11.2549 1.14224C11.2549 1.16019 11.2097 1.17488 11.1544 1.17488C11.0991 1.17488 11.0539 1.18956 11.0539 1.20751C11.0539 1.22546 11.0087 1.24015 10.9534 1.24015C10.8982 1.24015 10.8529 1.25483 10.8529 1.27278C10.8529 1.29073 10.8228 1.30542 10.7859 1.30542C10.7491 1.30542 10.719 1.3201 10.719 1.33805C10.719 1.356 10.6737 1.37069 10.6185 1.37069C10.5632 1.37069 10.518 1.38537 10.518 1.40332C10.518 1.42127 10.4728 1.43596 10.4175 1.43596C10.3622 1.43596 10.317 1.45065 10.317 1.4686C10.317 1.48654 10.2868 1.50123 10.25 1.50123C10.2132 1.50123 10.183 1.51592 10.183 1.53387C10.183 1.55182 10.1529 1.5665 10.116 1.5665C10.0792 1.5665 10.049 1.58119 10.049 1.59914C10.049 1.61709 10.0038 1.63177 9.94853 1.63177C9.89326 1.63177 9.84804 1.64646 9.84804 1.66441C9.84804 1.68236 9.81789 1.69704 9.78105 1.69704C9.7442 1.69704 9.71405 1.71173 9.71405 1.72968C9.71405 1.74763 9.66883 1.76231 9.61356 1.76231C9.55829 1.76231 9.51307 1.777 9.51307 1.79495C9.51307 1.8129 9.48293 1.82759 9.44608 1.82759C9.40923 1.82759 9.37909 1.84227 9.37909 1.86022C9.37909 1.87817 9.34894 1.89286 9.31209 1.89286C9.27524 1.89286 9.2451 1.90754 9.2451 1.92549C9.2451 1.94344 9.19988 1.95813 9.14461 1.95813C9.08934 1.95813 9.04412 1.97281 9.04412 1.99076C9.04412 2.00871 9.01397 2.0234 8.97712 2.0234C8.94028 2.0234 8.91013 2.03808 8.91013 2.05603C8.91013 2.07398 8.87998 2.08867 8.84314 2.08867C8.80629 2.08867 8.77614 2.10335 8.77614 2.1213C8.77614 2.13925 8.746 2.15394 8.70915 2.15394C8.6723 2.15394 8.64216 2.16863 8.64216 2.18658C8.64216 2.20452 8.61201 2.21921 8.57516 2.21921C8.53832 2.21921 8.50817 2.2339 8.50817 2.25185C8.50817 2.2698 8.47802 2.28448 8.44118 2.28448C8.40433 2.28448 8.37418 2.29917 8.37418 2.31712C8.37418 2.33507 8.34404 2.34975 8.30719 2.34975C8.27034 2.34975 8.2402 2.36444 8.2402 2.38239C8.2402 2.40034 8.21005 2.41502 8.1732 2.41502C8.13636 2.41502 8.10621 2.42971 8.10621 2.44766C8.10621 2.46561 8.07606 2.48029 8.03922 2.48029C8.00237 2.48029 7.97222 2.49498 7.97222 2.51293C7.97222 2.53088 7.94208 2.54557 7.90523 2.54557C7.86838 2.54557 7.83824 2.56025 7.83824 2.5782C7.83824 2.59615 7.8114 2.61084 7.77864 2.61084C7.74584 2.61084 7.69731 2.64021 7.67075 2.67611C7.64419 2.71201 7.59566 2.74138 7.56287 2.74138C7.53011 2.74138 7.50327 2.75606 7.50327 2.77401C7.50327 2.79196 7.47312 2.80665 7.43627 2.80665C7.39943 2.80665 7.36928 2.82133 7.36928 2.83928C7.36928 2.85723 7.33913 2.87192 7.30229 2.87192C7.26544 2.87192 7.23529 2.88661 7.23529 2.90455C7.23529 2.9225 7.20845 2.93719 7.17569 2.93719C7.1429 2.93719 7.09437 2.96656 7.06781 3.00246C7.04125 3.03836 6.99603 3.06773 6.96732 3.06773C6.93861 3.06773 6.89339 3.0971 6.86683 3.133C6.84027 3.1689 6.79174 3.19827 6.75895 3.19827C6.72619 3.19827 6.69935 3.21296 6.69935 3.23091C6.69935 3.24886 6.67251 3.26354 6.63975 3.26354C6.60695 3.26354 6.55843 3.29292 6.53186 3.32882C6.5053 3.36471 6.46008 3.39409 6.43137 3.39409C6.40267 3.39409 6.35745 3.42346 6.33088 3.45936C6.30432 3.49526 6.2591 3.52463 6.23039 3.52463C6.20169 3.52463 6.15646 3.554 6.1299 3.5899C6.10334 3.6258 6.05812 3.65517 6.02941 3.65517C6.00071 3.65517 5.95548 3.68454 5.92892 3.72044C5.90236 3.75634 5.85986 3.78571 5.83447 3.78571C5.80911 3.78571 5.74606 3.82977 5.69444 3.88362C5.64283 3.93747 5.57978 3.98152 5.55442 3.98152C5.52903 3.98152 5.48653 4.0109 5.45997 4.0468C5.4334 4.0827 5.3909 4.11207 5.36551 4.11207C5.34016 4.11207 5.27711 4.15612 5.22549 4.20997C5.17387 4.26382 5.11358 4.30788 5.0915 4.30788C5.06943 4.30788 5.00913 4.35194 4.95752 4.40579C4.9059 4.45963 4.8456 4.50369 4.82353 4.50369C4.80146 4.50369 4.74116 4.54775 4.68954 4.6016C4.63792 4.65545 4.57793 4.6995 4.55623 4.6995C4.53455 4.6995 4.45888 4.75825 4.38807 4.83005C4.31726 4.90184 4.24226 4.96059 4.22136 4.96059C4.20046 4.96059 4.09461 5.0487 3.98611 5.1564C3.87762 5.2641 3.77253 5.35221 3.75257 5.35221C3.73264 5.35221 3.52118 5.54313 3.28268 5.77647C3.04418 6.00982 2.83315 6.20074 2.81376 6.20074C2.76643 6.20074 2.47876 6.483 2.47876 6.52944C2.47876 6.54964 2.43146 6.6092 2.37368 6.66181C2.31586 6.71442 2.27728 6.76592 2.28786 6.77626C2.29848 6.78657 2.42804 6.676 2.57576 6.53052C2.72349 6.38503 2.86126 6.26601 2.88193 6.26601C2.90256 6.26601 2.97739 6.20726 3.0482 6.13546C3.11901 6.06367 3.19438 6.00492 3.21569 6.00492C3.23699 6.00492 3.31236 5.94618 3.38317 5.87438C3.45398 5.80258 3.52965 5.74384 3.55132 5.74384C3.57303 5.74384 3.63302 5.69978 3.68464 5.64593C3.73626 5.59208 3.79931 5.54803 3.82466 5.54803C3.85005 5.54803 3.89255 5.51865 3.91912 5.48276C3.94568 5.44686 3.98818 5.41748 4.01357 5.41748C4.03893 5.41748 4.10198 5.37343 4.15359 5.31958C4.20521 5.26573 4.26826 5.22167 4.29362 5.22167C4.31901 5.22167 4.36151 5.1923 4.38807 5.1564C4.41463 5.1205 4.45986 5.09113 4.48856 5.09113C4.51727 5.09113 4.56249 5.06176 4.58905 5.02586C4.61562 4.98996 4.66084 4.96059 4.68954 4.96059C4.71825 4.96059 4.76347 4.93122 4.79003 4.89532C4.8166 4.85942 4.86182 4.83005 4.89052 4.83005C4.91923 4.83005 4.96445 4.80067 4.99101 4.76478C5.01758 4.72888 5.0661 4.6995 5.0989 4.6995C5.13166 4.6995 5.1585 4.68482 5.1585 4.66687C5.1585 4.64892 5.18534 4.63423 5.2181 4.63423C5.25089 4.63423 5.29942 4.60486 5.32598 4.56896C5.35254 4.53306 5.40107 4.50369 5.43386 4.50369C5.46662 4.50369 5.49346 4.48901 5.49346 4.47106C5.49346 4.45311 5.5203 4.43842 5.55306 4.43842C5.58586 4.43842 5.63439 4.40905 5.66095 4.37315C5.68751 4.33725 5.73604 4.30788 5.76883 4.30788C5.80159 4.30788 5.82843 4.29319 5.82843 4.27524C5.82843 4.25729 5.85858 4.24261 5.89542 4.24261C5.93227 4.24261 5.96242 4.22792 5.96242 4.20997C5.96242 4.19202 5.99257 4.17734 6.02941 4.17734C6.06626 4.17734 6.09641 4.16265 6.09641 4.1447C6.09641 4.12675 6.12655 4.11207 6.1634 4.11207C6.20024 4.11207 6.23039 4.09738 6.23039 4.07943C6.23039 4.06148 6.26054 4.0468 6.29739 4.0468C6.33423 4.0468 6.36438 4.03211 6.36438 4.01416C6.36438 3.99621 6.39453 3.98152 6.43137 3.98152C6.46822 3.98152 6.49837 3.96684 6.49837 3.94889C6.49837 3.93094 6.52851 3.91625 6.56536 3.91625C6.60221 3.91625 6.63235 3.90157 6.63235 3.88362C6.63235 3.86567 6.6625 3.85098 6.69935 3.85098C6.73619 3.85098 6.76634 3.8363 6.76634 3.81835C6.76634 3.8004 6.79649 3.78571 6.83333 3.78571C6.87018 3.78571 6.90033 3.77103 6.90033 3.75308C6.90033 3.73513 6.94555 3.72044 7.00082 3.72044C7.05609 3.72044 7.10131 3.70575 7.10131 3.68781C7.10131 3.66986 7.13145 3.65517 7.1683 3.65517C7.20515 3.65517 7.23529 3.64048 7.23529 3.62253C7.23529 3.60459 7.26544 3.5899 7.30229 3.5899C7.33913 3.5899 7.36928 3.57521 7.36928 3.55726C7.36928 3.53931 7.4145 3.52463 7.46977 3.52463C7.52504 3.52463 7.57026 3.50994 7.57026 3.49199C7.57026 3.47404 7.60041 3.45936 7.63725 3.45936C7.6741 3.45936 7.70425 3.44467 7.70425 3.42672C7.70425 3.40877 7.74947 3.39409 7.80474 3.39409C7.86001 3.39409 7.90523 3.3794 7.90523 3.36145C7.90523 3.3435 7.93538 3.32882 7.97222 3.32882C8.00907 3.32882 8.03922 3.31413 8.03922 3.29618C8.03922 3.27823 8.08444 3.26354 8.13971 3.26354C8.19497 3.26354 8.2402 3.24886 8.2402 3.23091C8.2402 3.21296 8.28542 3.19827 8.34069 3.19827C8.39596 3.19827 8.44118 3.18359 8.44118 3.16564C8.44118 3.14769 8.4864 3.133 8.54167 3.133C8.59694 3.133 8.64216 3.11832 8.64216 3.10037C8.64216 3.08242 8.68738 3.06773 8.74265 3.06773C8.79792 3.06773 8.84314 3.05305 8.84314 3.0351C8.84314 3.01715 8.88836 3.00246 8.94363 3.00246C8.9989 3.00246 9.04412 2.98778 9.04412 2.96983C9.04412 2.95188 9.08934 2.93719 9.14461 2.93719C9.19988 2.93719 9.2451 2.9225 9.2451 2.90455C9.2451 2.88661 9.29032 2.87192 9.34559 2.87192C9.40086 2.87192 9.44608 2.85723 9.44608 2.83928C9.44608 2.82133 9.50637 2.80665 9.58006 2.80665C9.65376 2.80665 9.71405 2.79196 9.71405 2.77401C9.71405 2.75606 9.77435 2.74138 9.84804 2.74138C9.92173 2.74138 9.98203 2.72669 9.98203 2.70874C9.98203 2.69079 10.0423 2.67611 10.116 2.67611C10.1897 2.67611 10.25 2.66142 10.25 2.64347C10.25 2.62552 10.3103 2.61084 10.384 2.61084C10.4577 2.61084 10.518 2.59615 10.518 2.5782C10.518 2.56025 10.5933 2.54557 10.6855 2.54557C10.7776 2.54557 10.8529 2.53088 10.8529 2.51293C10.8529 2.49478 10.9423 2.48029 11.0539 2.48029C11.1656 2.48029 11.2549 2.4658 11.2549 2.44766C11.2549 2.42971 11.3303 2.41502 11.4224 2.41502C11.5145 2.41502 11.5899 2.40034 11.5899 2.38239C11.5899 2.36336 11.7015 2.34975 11.8578 2.34975C12.0142 2.34975 12.1258 2.33614 12.1258 2.31712C12.1258 2.29754 12.2598 2.28448 12.4608 2.28448C12.6618 2.28448 12.7958 2.27143 12.7958 2.25185C12.7958 2.2306 13.287 2.21921 14.2026 2.21921C15.1182 2.21921 15.6095 2.2306 15.6095 2.25185C15.6095 2.27143 15.7435 2.28448 15.9444 2.28448C16.1454 2.28448 16.2794 2.29754 16.2794 2.31712C16.2794 2.33614 16.3911 2.34975 16.5474 2.34975C16.7037 2.34975 16.8154 2.36336 16.8154 2.38239C16.8154 2.40053 16.9047 2.41502 17.0163 2.41502C17.128 2.41502 17.2173 2.42951 17.2173 2.44766C17.2173 2.46561 17.2927 2.48029 17.3848 2.48029C17.4769 2.48029 17.5523 2.49498 17.5523 2.51293C17.5523 2.53088 17.6277 2.54557 17.7198 2.54557C17.8119 2.54557 17.8873 2.56025 17.8873 2.5782C17.8873 2.59615 17.9626 2.61084 18.0547 2.61084C18.1469 2.61084 18.2222 2.62552 18.2222 2.64347C18.2222 2.66142 18.2825 2.67611 18.3562 2.67611C18.4299 2.67611 18.4902 2.69079 18.4902 2.70874C18.4902 2.72669 18.5354 2.74138 18.5907 2.74138C18.646 2.74138 18.6912 2.75606 18.6912 2.77401C18.6912 2.79196 18.7515 2.80665 18.8252 2.80665C18.8989 2.80665 18.9591 2.82133 18.9591 2.83928C18.9591 2.85723 19.0044 2.87192 19.0596 2.87192C19.1149 2.87192 19.1601 2.88661 19.1601 2.90455C19.1601 2.9225 19.2054 2.93719 19.2606 2.93719C19.3159 2.93719 19.3611 2.95188 19.3611 2.96983C19.3611 2.98778 19.4063 3.00246 19.4616 3.00246C19.5169 3.00246 19.5621 3.01715 19.5621 3.0351C19.5621 3.05305 19.6224 3.06773 19.6961 3.06773C19.7698 3.06773 19.8301 3.08242 19.8301 3.10037C19.8301 3.11832 19.8602 3.133 19.8971 3.133C19.9339 3.133 19.9641 3.14769 19.9641 3.16564C19.9641 3.18359 20.0093 3.19827 20.0645 3.19827C20.1198 3.19827 20.165 3.21296 20.165 3.23091C20.165 3.24886 20.2103 3.26354 20.2655 3.26354C20.3208 3.26354 20.366 3.27823 20.366 3.29618C20.366 3.31413 20.3962 3.32882 20.433 3.32882C20.4699 3.32882 20.5 3.3435 20.5 3.36145C20.5 3.3794 20.5452 3.39409 20.6005 3.39409C20.6558 3.39409 20.701 3.40877 20.701 3.42672C20.701 3.44467 20.7311 3.45936 20.768 3.45936C20.8048 3.45936 20.835 3.47404 20.835 3.49199C20.835 3.50994 20.8802 3.52463 20.9355 3.52463C20.9907 3.52463 21.0359 3.53931 21.0359 3.55726C21.0359 3.57521 21.0661 3.5899 21.1029 3.5899C21.1398 3.5899 21.1699 3.60459 21.1699 3.62253C21.1699 3.64048 21.2001 3.65517 21.2369 3.65517C21.2738 3.65517 21.3039 3.66986 21.3039 3.68781C21.3039 3.70575 21.3491 3.72044 21.4044 3.72044C21.4597 3.72044 21.5049 3.73513 21.5049 3.75308C21.5049 3.77103 21.5351 3.78571 21.5719 3.78571C21.6087 3.78571 21.6389 3.8004 21.6389 3.81835C21.6389 3.8363 21.669 3.85098 21.7059 3.85098C21.7427 3.85098 21.7729 3.86567 21.7729 3.88362C21.7729 3.90157 21.803 3.91625 21.8399 3.91625C21.8767 3.91625 21.9069 3.93094 21.9069 3.94889C21.9069 3.96684 21.937 3.98152 21.9739 3.98152C22.0107 3.98152 22.0408 3.99621 22.0408 4.01416C22.0408 4.03211 22.071 4.0468 22.1078 4.0468C22.1447 4.0468 22.1748 4.06148 22.1748 4.07943C22.1748 4.09738 22.205 4.11207 22.2418 4.11207C22.2787 4.11207 22.3088 4.12675 22.3088 4.1447C22.3088 4.16265 22.339 4.17734 22.3758 4.17734C22.4127 4.17734 22.4428 4.19202 22.4428 4.20997C22.4428 4.22792 22.4697 4.24261 22.5024 4.24261C22.5352 4.24261 22.5837 4.27198 22.6103 4.30788C22.6369 4.34378 22.6854 4.37315 22.7182 4.37315C22.7509 4.37315 22.7778 4.38784 22.7778 4.40579C22.7778 4.42374 22.8079 4.43842 22.8448 4.43842C22.8816 4.43842 22.9118 4.45311 22.9118 4.47106C22.9118 4.48901 22.9386 4.50369 22.9714 4.50369C23.0042 4.50369 23.0527 4.53306 23.0792 4.56896C23.1058 4.60486 23.1543 4.63423 23.1871 4.63423C23.2199 4.63423 23.2467 4.64892 23.2467 4.66687C23.2467 4.68482 23.2736 4.6995 23.3063 4.6995C23.3391 4.6995 23.3877 4.72888 23.4142 4.76478C23.4408 4.80067 23.486 4.83005 23.5147 4.83005C23.5434 4.83005 23.5886 4.85942 23.6152 4.89532C23.6418 4.93122 23.687 4.96059 23.7157 4.96059C23.7444 4.96059 23.7896 4.98996 23.8162 5.02586C23.8427 5.06176 23.888 5.09113 23.9167 5.09113C23.9454 5.09113 23.9906 5.1205 24.0172 5.1564C24.0437 5.1923 24.0889 5.22167 24.1176 5.22167C24.1464 5.22167 24.1916 5.25104 24.2181 5.28694C24.2447 5.32284 24.2872 5.35221 24.3126 5.35221C24.3379 5.35221 24.401 5.39627 24.4526 5.45012C24.5042 5.50397 24.5645 5.54803 24.5866 5.54803C24.6087 5.54803 24.669 5.59208 24.7206 5.64593C24.7722 5.69978 24.8322 5.74384 24.8539 5.74384C24.8756 5.74384 24.9512 5.80258 25.0221 5.87438C25.0929 5.94618 25.168 6.00492 25.1891 6.00492C25.2102 6.00492 25.3008 6.07835 25.3905 6.1681C25.4803 6.25785 25.5702 6.33128 25.5905 6.33128C25.6108 6.33128 25.777 6.47814 25.96 6.65763C26.1429 6.83713 26.3087 6.98399 26.3284 6.98399C26.3748 6.98399 26.5964 7.19974 26.5964 7.24494C26.5964 7.26403 26.7773 7.45498 26.9984 7.66933C27.2194 7.88368 27.4003 8.07512 27.4003 8.09476C27.4003 8.11438 27.4757 8.20197 27.5678 8.2894C27.6599 8.37683 27.7353 8.46514 27.7353 8.48564C27.7353 8.50617 27.7956 8.5794 27.8693 8.64839C27.943 8.71739 28.0033 8.79111 28.0033 8.81223C28.0033 8.83337 28.0485 8.89182 28.1038 8.94211C28.159 8.9924 28.2042 9.05115 28.2042 9.07265C28.2042 9.09416 28.2495 9.1529 28.3047 9.2032C28.36 9.25349 28.4052 9.31491 28.4052 9.33961C28.4052 9.36435 28.4354 9.40576 28.4722 9.43164C28.5091 9.45752 28.5392 9.50158 28.5392 9.52955C28.5392 9.55752 28.5694 9.60158 28.6062 9.62746C28.6431 9.65334 28.6732 9.6974 28.6732 9.72536C28.6732 9.75333 28.7034 9.79739 28.7402 9.82327C28.777 9.84915 28.8072 9.89321 28.8072 9.92118C28.8072 9.94915 28.8373 9.9932 28.8742 10.0191C28.911 10.045 28.9412 10.0922 28.9412 10.1242C28.9412 10.1561 28.9562 10.1823 28.9747 10.1823C28.9931 10.1823 29.0082 10.2084 29.0082 10.2403C29.0082 10.2723 29.0383 10.3196 29.0752 10.3454C29.112 10.3713 29.1422 10.4186 29.1422 10.4506C29.1422 10.4825 29.1572 10.5086 29.1757 10.5086C29.1941 10.5086 29.2092 10.5348 29.2092 10.5667C29.2092 10.5986 29.2393 10.6459 29.2761 10.6718C29.313 10.6977 29.3431 10.745 29.3431 10.7769C29.3431 10.8088 29.3582 10.835 29.3766 10.835C29.3951 10.835 29.4101 10.8643 29.4101 10.9002C29.4101 10.9361 29.4252 10.9655 29.4436 10.9655C29.4621 10.9655 29.4771 10.9949 29.4771 11.0308C29.4771 11.0667 29.4922 11.0961 29.5106 11.0961C29.529 11.0961 29.5441 11.1254 29.5441 11.1613C29.5441 11.1972 29.5592 11.2266 29.5776 11.2266C29.596 11.2266 29.6111 11.256 29.6111 11.2919C29.6111 11.3278 29.6262 11.3571 29.6446 11.3571C29.663 11.3571 29.6781 11.3865 29.6781 11.4224C29.6781 11.4583 29.6932 11.4877 29.7116 11.4877C29.73 11.4877 29.7451 11.5171 29.7451 11.5529C29.7451 11.5888 29.7602 11.6182 29.7786 11.6182C29.797 11.6182 29.8121 11.6476 29.8121 11.6835C29.8121 11.7194 29.8272 11.7488 29.8456 11.7488C29.864 11.7488 29.8791 11.7781 29.8791 11.814C29.8791 11.8499 29.8942 11.8793 29.9126 11.8793C29.931 11.8793 29.9461 11.9087 29.9461 11.9446C29.9461 11.9805 29.9612 12.0098 29.9796 12.0098C29.998 12.0098 30.0131 12.0392 30.0131 12.0751C30.0131 12.111 30.0281 12.1404 30.0466 12.1404C30.065 12.1404 30.0801 12.1698 30.0801 12.2057C30.0801 12.2416 30.0951 12.2709 30.1136 12.2709C30.132 12.2709 30.1471 12.3003 30.1471 12.3362C30.1471 12.3721 30.1621 12.4015 30.1806 12.4015C30.199 12.4015 30.2141 12.4308 30.2141 12.4667C30.2141 12.5026 30.2291 12.532 30.2475 12.532C30.266 12.532 30.281 12.5761 30.281 12.6299C30.281 12.6838 30.2961 12.7278 30.3145 12.7278C30.333 12.7278 30.348 12.7572 30.348 12.7931C30.348 12.829 30.3631 12.8584 30.3815 12.8584C30.4 12.8584 30.415 12.9024 30.415 12.9563C30.415 13.0101 30.4301 13.0542 30.4485 13.0542C30.467 13.0542 30.482 13.0836 30.482 13.1195C30.482 13.1553 30.4971 13.1847 30.5155 13.1847C30.5339 13.1847 30.549 13.2288 30.549 13.2826C30.549 13.3365 30.5641 13.3805 30.5825 13.3805C30.6009 13.3805 30.616 13.4246 30.616 13.4784C30.616 13.5323 30.6311 13.5763 30.6495 13.5763C30.6679 13.5763 30.683 13.6204 30.683 13.6743C30.683 13.7281 30.6981 13.7722 30.7165 13.7722C30.7349 13.7722 30.75 13.8162 30.75 13.8701C30.75 13.9239 30.7651 13.968 30.7835 13.968C30.8019 13.968 30.817 14.012 30.817 14.0659C30.817 14.1197 30.8321 14.1638 30.8505 14.1638C30.8689 14.1638 30.884 14.2078 30.884 14.2617C30.884 14.3155 30.8991 14.3596 30.9175 14.3596C30.9359 14.3596 30.951 14.4183 30.951 14.4901C30.951 14.5619 30.9661 14.6207 30.9845 14.6207C31.0029 14.6207 31.018 14.6794 31.018 14.7512C31.018 14.823 31.0331 14.8818 31.0515 14.8818C31.0699 14.8818 31.085 14.9405 31.085 15.0123C31.085 15.0841 31.1 15.1428 31.1185 15.1428C31.1369 15.1428 31.152 15.2016 31.152 15.2734C31.152 15.3452 31.167 15.4039 31.1855 15.4039C31.2041 15.4039 31.219 15.491 31.219 15.5997C31.219 15.7085 31.2338 15.7956 31.2525 15.7956C31.2709 15.7956 31.2859 15.869 31.2859 15.9587C31.2859 16.0485 31.301 16.1219 31.3194 16.1219C31.3381 16.1219 31.3529 16.209 31.3529 16.3177C31.3529 16.4265 31.3678 16.5135 31.3864 16.5135C31.4056 16.5135 31.4199 16.6114 31.4199 16.742C31.4199 16.8725 31.4343 16.9704 31.4534 16.9704C31.4733 16.9704 31.4869 17.0901 31.4869 17.2642C31.4869 17.4382 31.5006 17.5579 31.5204 17.5579C31.5412 17.5579 31.5539 17.7319 31.5539 18.0148C31.5539 18.2976 31.5667 18.4717 31.5874 18.4717C31.6088 18.4717 31.6209 18.7545 31.6209 19.2549C31.6209 19.7553 31.6088 20.0382 31.5874 20.0382C31.5667 20.0382 31.5539 20.2122 31.5539 20.4951C31.5539 20.7779 31.5412 20.952 31.5204 20.952C31.5009 20.952 31.4869 21.0607 31.4869 21.213C31.4869 21.3654 31.473 21.4741 31.4534 21.4741C31.4343 21.4741 31.4199 21.572 31.4199 21.7026C31.4199 21.8331 31.4056 21.931 31.3864 21.931C31.3678 21.931 31.3529 22.0181 31.3529 22.1268C31.3529 22.2356 31.3381 22.3226 31.3194 22.3226C31.301 22.3226 31.2859 22.3961 31.2859 22.4858C31.2859 22.5756 31.2709 22.649 31.2525 22.649C31.234 22.649 31.219 22.7224 31.219 22.8122C31.219 22.9019 31.2039 22.9754 31.1855 22.9754C31.167 22.9754 31.152 23.0488 31.152 23.1385C31.152 23.2283 31.1369 23.3017 31.1185 23.3017C31.1 23.3017 31.085 23.3605 31.085 23.4323C31.085 23.5041 31.0699 23.5628 31.0515 23.5628C31.0331 23.5628 31.018 23.6069 31.018 23.6607C31.018 23.7145 31.0029 23.7586 30.9845 23.7586C30.9661 23.7586 30.951 23.8174 30.951 23.8892C30.951 23.9609 30.9359 24.0197 30.9175 24.0197C30.8991 24.0197 30.884 24.0637 30.884 24.1176C30.884 24.1714 30.8689 24.2155 30.8505 24.2155C30.8321 24.2155 30.817 24.2596 30.817 24.3134C30.817 24.3673 30.8019 24.4113 30.7835 24.4113C30.7651 24.4113 30.75 24.4554 30.75 24.5092C30.75 24.5631 30.7349 24.6071 30.7165 24.6071C30.6981 24.6071 30.683 24.6512 30.683 24.705C30.683 24.7589 30.6679 24.8029 30.6495 24.8029C30.6311 24.8029 30.616 24.847 30.616 24.9008C30.616 24.9547 30.6009 24.9988 30.5825 24.9988C30.5641 24.9988 30.549 25.0428 30.549 25.0967C30.549 25.1505 30.5339 25.1946 30.5155 25.1946C30.4971 25.1946 30.482 25.2239 30.482 25.2598C30.482 25.2957 30.467 25.3251 30.4485 25.3251C30.4301 25.3251 30.415 25.3692 30.415 25.423C30.415 25.4769 30.4 25.5209 30.3815 25.5209C30.3631 25.5209 30.348 25.5503 30.348 25.5862C30.348 25.6221 30.333 25.6515 30.3145 25.6515C30.2961 25.6515 30.281 25.6808 30.281 25.7167C30.281 25.7526 30.266 25.782 30.2475 25.782C30.2291 25.782 30.2141 25.8261 30.2141 25.8799C30.2141 25.9338 30.199 25.9778 30.1806 25.9778C30.1621 25.9778 30.1471 26.0072 30.1471 26.0431C30.1471 26.079 30.132 26.1084 30.1136 26.1084C30.0951 26.1084 30.0801 26.1377 30.0801 26.1736C30.0801 26.2095 30.065 26.2389 30.0466 26.2389C30.0281 26.2389 30.0131 26.2683 30.0131 26.3042C30.0131 26.3401 29.998 26.3694 29.9796 26.3694C29.9612 26.3694 29.9461 26.3988 29.9461 26.4347C29.9461 26.4706 29.931 26.5 29.9126 26.5C29.8942 26.5 29.8791 26.5294 29.8791 26.5653C29.8791 26.6012 29.864 26.6305 29.8456 26.6305C29.8272 26.6305 29.8121 26.6599 29.8121 26.6958C29.8121 26.7317 29.797 26.7611 29.7786 26.7611C29.7602 26.7611 29.7451 26.7904 29.7451 26.8263C29.7451 26.8622 29.73 26.8916 29.7116 26.8916C29.6932 26.8916 29.6781 26.921 29.6781 26.9569C29.6781 26.9928 29.663 27.0222 29.6446 27.0222C29.6262 27.0222 29.6111 27.0515 29.6111 27.0874C29.6111 27.1233 29.596 27.1527 29.5776 27.1527C29.5592 27.1527 29.5441 27.1821 29.5441 27.218C29.5441 27.2539 29.529 27.2832 29.5106 27.2832C29.4922 27.2832 29.4771 27.3094 29.4771 27.3413C29.4771 27.3732 29.447 27.4205 29.4101 27.4464C29.3733 27.4723 29.3431 27.5196 29.3431 27.5515C29.3431 27.5834 29.3281 27.6096 29.3096 27.6096C29.2912 27.6096 29.2761 27.639 29.2761 27.6749C29.2761 27.7108 29.2611 27.7401 29.2426 27.7401C29.2242 27.7401 29.2092 27.7695 29.2092 27.8054C29.2092 27.8413 29.1941 27.8707 29.1757 27.8707C29.1572 27.8707 29.1422 27.8968 29.1422 27.9287C29.1422 27.9607 29.112 28.008 29.0752 28.0338C29.0383 28.0597 29.0082 28.107 29.0082 28.139C29.0082 28.1709 28.9931 28.197 28.9747 28.197C28.9562 28.197 28.9412 28.2232 28.9412 28.2551C28.9412 28.287 28.911 28.3343 28.8742 28.3602C28.8373 28.3861 28.8072 28.4301 28.8072 28.4581C28.8072 28.4861 28.777 28.5301 28.7402 28.556C28.7034 28.5819 28.6732 28.626 28.6732 28.6539C28.6732 28.6819 28.6431 28.7259 28.6062 28.7518C28.5694 28.7777 28.5392 28.8218 28.5392 28.8497C28.5392 28.8777 28.5091 28.9218 28.4722 28.9476C28.4354 28.9735 28.4052 29.0176 28.4052 29.0456C28.4052 29.0735 28.3751 29.1176 28.3382 29.1435C28.3014 29.1693 28.2712 29.2104 28.2712 29.2348C28.2712 29.2592 28.2109 29.3355 28.1373 29.4045C28.0636 29.4735 28.0033 29.547 28.0033 29.5677C28.0033 29.5885 27.943 29.6619 27.8693 29.7309C27.7956 29.7999 27.7353 29.8729 27.7353 29.8931C27.7353 29.9133 27.6298 30.0312 27.5008 30.1552C27.3719 30.2791 27.2663 30.3959 27.2663 30.4148C27.2663 30.4601 25.703 31.9827 25.6565 31.9827C25.6368 31.9827 25.5473 32.0562 25.4575 32.1459C25.3678 32.2357 25.2781 32.3091 25.2582 32.3091C25.2123 32.3091 24.6536 32.8516 24.6536 32.8962C24.6536 32.9397 23.2241 34.3325 23.1795 34.3325C23.135 34.3325 22.5098 34.9416 22.5098 34.9849C22.5098 35.0284 20.9463 36.5517 20.9016 36.5517C20.857 36.5517 20.366 37.03 20.366 37.0735C20.366 37.1271 18.6631 38.7709 18.6076 38.7709C18.5799 38.7709 18.5572 38.7856 18.5572 38.8036C18.5572 38.8215 18.5345 38.8362 18.5069 38.8362C18.4792 38.8362 15.9394 36.3836 12.8627 33.3861C9.1495 29.7682 7.24638 27.9359 7.20183 27.9359C7.15745 27.9359 5.92731 29.1123 3.56737 31.4116C1.6053 33.3232 0 34.9019 0 34.9199C0 34.9379 4.16783 39.0133 9.26185 43.9763L18.5237 53L26.6801 45.0533C31.1662 40.6826 34.8366 37.0912 34.8366 37.0725C34.8366 37.0538 34.9572 36.9222 35.1046 36.7802C35.252 36.6381 35.3725 36.5059 35.3725 36.4863C35.3725 36.4667 35.4781 36.3493 35.607 36.2253C35.736 36.1014 35.8415 35.9837 35.8415 35.9637C35.8415 35.9437 35.9169 35.8559 36.009 35.7685C36.1011 35.681 36.1765 35.5924 36.1765 35.5715C36.1765 35.5506 36.2217 35.4924 36.277 35.4421C36.3322 35.3918 36.3775 35.3331 36.3775 35.3116C36.3775 35.2901 36.4227 35.2313 36.4779 35.181C36.5332 35.1307 36.5784 35.072 36.5784 35.0505C36.5784 35.029 36.6236 34.9702 36.6789 34.9199C36.7342 34.8696 36.7794 34.8082 36.7794 34.7835C36.7794 34.7588 36.8096 34.7174 36.8464 34.6915C36.8833 34.6656 36.9134 34.6215 36.9134 34.5936C36.9134 34.5656 36.9435 34.5215 36.9804 34.4957C37.0172 34.4698 37.0474 34.4257 37.0474 34.3978C37.0474 34.3698 37.0775 34.3257 37.1144 34.2999C37.1512 34.274 37.1814 34.2299 37.1814 34.202C37.1814 34.174 37.2115 34.1299 37.2484 34.104C37.2852 34.0782 37.3154 34.0341 37.3154 34.0061C37.3154 33.9782 37.3455 33.9341 37.3824 33.9082C37.4192 33.8824 37.4493 33.8383 37.4493 33.8103C37.4493 33.7824 37.4795 33.7383 37.5163 33.7124C37.5532 33.6865 37.5833 33.6393 37.5833 33.6073C37.5833 33.5754 37.5984 33.5492 37.6168 33.5492C37.6353 33.5492 37.6503 33.5231 37.6503 33.4912C37.6503 33.4592 37.6805 33.4119 37.7173 33.3861C37.7542 33.3602 37.7843 33.3161 37.7843 33.2882C37.7843 33.2602 37.8145 33.2161 37.8513 33.1903C37.8882 33.1644 37.9183 33.1171 37.9183 33.0851C37.9183 33.0532 37.9334 33.0271 37.9518 33.0271C37.9702 33.0271 37.9853 32.9977 37.9853 32.9618C37.9853 32.9259 38.0004 32.8965 38.0188 32.8965C38.0372 32.8965 38.0523 32.8704 38.0523 32.8385C38.0523 32.8065 38.0824 32.7592 38.1193 32.7334C38.1561 32.7075 38.1863 32.6602 38.1863 32.6282C38.1863 32.5963 38.2013 32.5702 38.2198 32.5702C38.2382 32.5702 38.2533 32.5408 38.2533 32.5049C38.2533 32.469 38.2683 32.4396 38.2868 32.4396C38.3052 32.4396 38.3203 32.4103 38.3203 32.3744C38.3203 32.3385 38.3353 32.3091 38.3538 32.3091C38.3722 32.3091 38.3873 32.2797 38.3873 32.2438C38.3873 32.2079 38.4023 32.1786 38.4208 32.1786C38.4392 32.1786 38.4542 32.1492 38.4542 32.1133C38.4542 32.0774 38.4693 32.048 38.4877 32.048C38.5062 32.048 38.5212 32.0186 38.5212 31.9827C38.5212 31.9468 38.5363 31.9175 38.5547 31.9175C38.5732 31.9175 38.5882 31.8913 38.5882 31.8594C38.5882 31.8275 38.6184 31.7802 38.6552 31.7543C38.6921 31.7284 38.7222 31.6811 38.7222 31.6492C38.7222 31.6173 38.7373 31.5911 38.7557 31.5911C38.7741 31.5911 38.7892 31.5471 38.7892 31.4932C38.7892 31.4394 38.8043 31.3953 38.8227 31.3953C38.8411 31.3953 38.8562 31.3659 38.8562 31.33C38.8562 31.2941 38.8713 31.2648 38.8897 31.2648C38.9081 31.2648 38.9232 31.2354 38.9232 31.1995C38.9232 31.1636 38.9383 31.1342 38.9567 31.1342C38.9751 31.1342 38.9902 31.1048 38.9902 31.0689C38.9902 31.033 39.0053 31.0037 39.0237 31.0037C39.0421 31.0037 39.0572 30.9743 39.0572 30.9384C39.0572 30.9025 39.0723 30.8731 39.0907 30.8731C39.1091 30.8731 39.1242 30.8438 39.1242 30.8079C39.1242 30.772 39.1393 30.7426 39.1577 30.7426C39.1761 30.7426 39.1912 30.6985 39.1912 30.6447C39.1912 30.5908 39.2063 30.5468 39.2247 30.5468C39.2431 30.5468 39.2582 30.5174 39.2582 30.4815C39.2582 30.4456 39.2732 30.4162 39.2917 30.4162C39.3101 30.4162 39.3252 30.3722 39.3252 30.3183C39.3252 30.2645 39.3402 30.2204 39.3587 30.2204C39.3771 30.2204 39.3922 30.1764 39.3922 30.1225C39.3922 30.0687 39.4072 30.0246 39.4257 30.0246C39.4441 30.0246 39.4592 29.9952 39.4592 29.9593C39.4592 29.9234 39.4742 29.8941 39.4926 29.8941C39.5111 29.8941 39.5261 29.85 39.5261 29.7962C39.5261 29.7423 39.5412 29.6983 39.5596 29.6983C39.5781 29.6983 39.5931 29.6542 39.5931 29.6004C39.5931 29.5465 39.6082 29.5024 39.6266 29.5024C39.6451 29.5024 39.6601 29.4731 39.6601 29.4372C39.6601 29.4013 39.6752 29.3719 39.6936 29.3719C39.712 29.3719 39.7271 29.3278 39.7271 29.274C39.7271 29.2202 39.7422 29.1761 39.7606 29.1761C39.779 29.1761 39.7941 29.132 39.7941 29.0782C39.7941 29.0243 39.8092 28.9803 39.8276 28.9803C39.846 28.9803 39.8611 28.9362 39.8611 28.8824C39.8611 28.8285 39.8762 28.7845 39.8946 28.7845C39.913 28.7845 39.9281 28.7404 39.9281 28.6866C39.9281 28.6327 39.9432 28.5887 39.9616 28.5887C39.98 28.5887 39.9951 28.5446 39.9951 28.4907C39.9951 28.4369 40.0102 28.3928 40.0286 28.3928C40.047 28.3928 40.0621 28.3341 40.0621 28.2623C40.0621 28.1905 40.0772 28.1318 40.0956 28.1318C40.114 28.1318 40.1291 28.0877 40.1291 28.0338C40.1291 27.98 40.1442 27.9359 40.1626 27.9359C40.181 27.9359 40.1961 27.8772 40.1961 27.8054C40.1961 27.7336 40.2112 27.6749 40.2296 27.6749C40.248 27.6749 40.2631 27.6308 40.2631 27.577C40.2631 27.5231 40.2781 27.479 40.2966 27.479C40.315 27.479 40.3301 27.4203 40.3301 27.3485C40.3301 27.2767 40.3451 27.218 40.3636 27.218C40.382 27.218 40.3971 27.1592 40.3971 27.0874C40.3971 27.0156 40.4121 26.9569 40.4306 26.9569C40.449 26.9569 40.4641 26.8835 40.4641 26.7937C40.4641 26.704 40.4791 26.6305 40.4976 26.6305C40.516 26.6305 40.531 26.5718 40.531 26.5C40.531 26.4282 40.5461 26.3694 40.5645 26.3694C40.583 26.3694 40.598 26.296 40.598 26.2063C40.598 26.1165 40.6131 26.0431 40.6315 26.0431C40.6502 26.0431 40.665 25.956 40.665 25.8473C40.665 25.7385 40.6799 25.6515 40.6985 25.6515C40.7172 25.6515 40.732 25.5644 40.732 25.4557C40.732 25.3469 40.7469 25.2598 40.7655 25.2598C40.7846 25.2598 40.799 25.1619 40.799 25.0314C40.799 24.9008 40.8134 24.8029 40.8325 24.8029C40.852 24.8029 40.866 24.6942 40.866 24.5419C40.866 24.3895 40.88 24.2808 40.8995 24.2808C40.9198 24.2808 40.933 24.1394 40.933 23.9218C40.933 23.7042 40.9462 23.5628 40.9665 23.5628C40.9884 23.5628 41 22.9862 41 21.8984C41 20.8105 40.9884 20.234 40.9665 20.234C40.9464 20.234 40.933 20.1034 40.933 19.9076C40.933 19.7118 40.9196 19.5813 40.8995 19.5813C40.8796 19.5813 40.866 19.4616 40.866 19.2875C40.866 19.1135 40.8524 18.9938 40.8325 18.9938C40.8139 18.9938 40.799 18.9068 40.799 18.798C40.799 18.6892 40.7841 18.6022 40.7655 18.6022C40.7464 18.6022 40.732 18.5043 40.732 18.3738C40.732 18.2432 40.7177 18.1453 40.6985 18.1453C40.6801 18.1453 40.665 18.0719 40.665 17.9821C40.665 17.8924 40.65 17.819 40.6315 17.819C40.6131 17.819 40.598 17.7455 40.598 17.6558C40.598 17.566 40.583 17.4926 40.5645 17.4926C40.5461 17.4926 40.531 17.4192 40.531 17.3294C40.531 17.2397 40.516 17.1662 40.4976 17.1662C40.4791 17.1662 40.4641 17.1075 40.4641 17.0357C40.4641 16.9639 40.449 16.9052 40.4306 16.9052C40.4121 16.9052 40.3971 16.8464 40.3971 16.7746C40.3971 16.7028 40.382 16.6441 40.3636 16.6441C40.3451 16.6441 40.3301 16.5853 40.3301 16.5135C40.3301 16.4417 40.315 16.383 40.2966 16.383C40.2781 16.383 40.2631 16.3243 40.2631 16.2525C40.2631 16.1807 40.248 16.1219 40.2296 16.1219C40.2112 16.1219 40.1961 16.0779 40.1961 16.024C40.1961 15.9702 40.181 15.9261 40.1626 15.9261C40.1442 15.9261 40.1291 15.8674 40.1291 15.7956C40.1291 15.7238 40.114 15.665 40.0956 15.665C40.0772 15.665 40.0621 15.621 40.0621 15.5671C40.0621 15.5133 40.047 15.4692 40.0286 15.4692C40.0102 15.4692 39.9951 15.4251 39.9951 15.3713C39.9951 15.3174 39.98 15.2734 39.9616 15.2734C39.9432 15.2734 39.9281 15.2293 39.9281 15.1755C39.9281 15.1216 39.913 15.0776 39.8946 15.0776C39.8762 15.0776 39.8611 15.0335 39.8611 14.9797C39.8611 14.9258 39.846 14.8818 39.8276 14.8818C39.8092 14.8818 39.7941 14.8377 39.7941 14.7839C39.7941 14.73 39.779 14.686 39.7606 14.686C39.7422 14.686 39.7271 14.6419 39.7271 14.588C39.7271 14.5342 39.712 14.4901 39.6936 14.4901C39.6752 14.4901 39.6601 14.4461 39.6601 14.3922C39.6601 14.3384 39.6451 14.2943 39.6266 14.2943C39.6082 14.2943 39.5931 14.265 39.5931 14.2291C39.5931 14.1932 39.5781 14.1638 39.5596 14.1638C39.5412 14.1638 39.5261 14.1197 39.5261 14.0659C39.5261 14.012 39.5111 13.968 39.4926 13.968C39.4742 13.968 39.4592 13.9386 39.4592 13.9027C39.4592 13.8668 39.4441 13.8374 39.4257 13.8374C39.4072 13.8374 39.3922 13.7934 39.3922 13.7395C39.3922 13.6857 39.3771 13.6416 39.3587 13.6416C39.3402 13.6416 39.3252 13.5976 39.3252 13.5437C39.3252 13.4899 39.3101 13.4458 39.2917 13.4458C39.2732 13.4458 39.2582 13.4164 39.2582 13.3805C39.2582 13.3446 39.2431 13.3153 39.2247 13.3153C39.2063 13.3153 39.1912 13.2712 39.1912 13.2174C39.1912 13.1635 39.1761 13.1195 39.1577 13.1195C39.1393 13.1195 39.1242 13.0901 39.1242 13.0542C39.1242 13.0183 39.1091 12.9889 39.0907 12.9889C39.0723 12.9889 39.0572 12.9595 39.0572 12.9236C39.0572 12.8877 39.0421 12.8584 39.0237 12.8584C39.0053 12.8584 38.9902 12.829 38.9902 12.7931C38.9902 12.7572 38.9751 12.7278 38.9567 12.7278C38.9383 12.7278 38.9232 12.6985 38.9232 12.6626C38.9232 12.6267 38.9081 12.5973 38.8897 12.5973C38.8713 12.5973 38.8562 12.5532 38.8562 12.4994C38.8562 12.4455 38.8411 12.4015 38.8227 12.4015C38.8043 12.4015 38.7892 12.3721 38.7892 12.3362C38.7892 12.3003 38.7741 12.2709 38.7557 12.2709C38.7373 12.2709 38.7222 12.2416 38.7222 12.2057C38.7222 12.1698 38.7072 12.1404 38.6887 12.1404C38.6703 12.1404 38.6552 12.111 38.6552 12.0751C38.6552 12.0392 38.6402 12.0098 38.6217 12.0098C38.6033 12.0098 38.5882 11.9805 38.5882 11.9446C38.5882 11.9087 38.5732 11.8793 38.5547 11.8793C38.5363 11.8793 38.5212 11.8532 38.5212 11.8212C38.5212 11.7893 38.4911 11.742 38.4542 11.7161C38.4174 11.6902 38.3873 11.643 38.3873 11.611C38.3873 11.5791 38.3722 11.5529 38.3538 11.5529C38.3353 11.5529 38.3203 11.5236 38.3203 11.4877C38.3203 11.4518 38.3052 11.4224 38.2868 11.4224C38.2683 11.4224 38.2533 11.393 38.2533 11.3571C38.2533 11.3212 38.2382 11.2919 38.2198 11.2919C38.2013 11.2919 38.1863 11.2657 38.1863 11.2338C38.1863 11.2019 38.1561 11.1546 38.1193 11.1287C38.0824 11.1028 38.0523 11.0555 38.0523 11.0236C38.0523 10.9917 38.0372 10.9655 38.0188 10.9655C38.0004 10.9655 37.9853 10.9361 37.9853 10.9002C37.9853 10.8643 37.9702 10.835 37.9518 10.835C37.9334 10.835 37.9183 10.8088 37.9183 10.7769C37.9183 10.745 37.8882 10.6977 37.8513 10.6718C37.8145 10.6459 37.7843 10.6019 37.7843 10.5739C37.7843 10.5459 37.7542 10.5019 37.7173 10.476C37.6805 10.4501 37.6503 10.4028 37.6503 10.3709C37.6503 10.3389 37.6353 10.3128 37.6168 10.3128C37.5984 10.3128 37.5833 10.2867 37.5833 10.2547C37.5833 10.2228 37.5532 10.1755 37.5163 10.1496C37.4795 10.1237 37.4493 10.0797 37.4493 10.0517C37.4493 10.0237 37.4192 9.97969 37.3824 9.95381C37.3455 9.92793 37.3154 9.88387 37.3154 9.85591C37.3154 9.82794 37.2852 9.78388 37.2484 9.758C37.2115 9.73212 37.1814 9.68806 37.1814 9.66009C37.1814 9.63212 37.1512 9.58807 37.1144 9.56219C37.0775 9.53631 37.0474 9.49225 37.0474 9.46428C37.0474 9.43631 37.0172 9.39225 36.9804 9.36637C36.9435 9.3405 36.9134 9.29644 36.9134 9.26847C36.9134 9.2405 36.8833 9.19644 36.8464 9.17056C36.8096 9.14468 36.7794 9.10326 36.7794 9.07853C36.7794 9.05382 36.7342 8.9924 36.6789 8.94211C36.6236 8.89182 36.5784 8.83308 36.5784 8.81157C36.5784 8.79006 36.5332 8.73132 36.4779 8.68103C36.4227 8.63074 36.3775 8.57248 36.3775 8.55159C36.3775 8.53071 36.3021 8.44211 36.21 8.35468C36.1179 8.26725 36.0425 8.17913 36.0425 8.15886C36.0425 8.1386 35.9671 8.05048 35.875 7.96305C35.7829 7.87562 35.7075 7.78767 35.7075 7.76756C35.7075 7.74743 35.6171 7.64449 35.5065 7.53879C35.396 7.43308 35.3056 7.33103 35.3056 7.31201C35.3056 7.26703 33.6086 5.6133 33.5625 5.6133C33.5432 5.6133 33.4081 5.49581 33.2623 5.35221C33.1164 5.20862 32.9802 5.09113 32.9596 5.09113C32.9389 5.09113 32.8641 5.03239 32.7933 4.96059C32.7225 4.88879 32.6471 4.83005 32.6258 4.83005C32.6045 4.83005 32.5291 4.7713 32.4583 4.6995C32.3875 4.62771 32.3119 4.56896 32.2902 4.56896C32.2685 4.56896 32.2085 4.52491 32.1569 4.47106C32.1052 4.41721 32.045 4.37315 32.0229 4.37315C32.0008 4.37315 31.9405 4.32909 31.8889 4.27524C31.8373 4.2214 31.7742 4.17734 31.7489 4.17734C31.7235 4.17734 31.681 4.14797 31.6544 4.11207C31.6278 4.07617 31.5853 4.0468 31.5599 4.0468C31.5346 4.0468 31.4716 4.00274 31.4199 3.94889C31.3683 3.89504 31.3053 3.85098 31.2799 3.85098C31.2545 3.85098 31.212 3.82161 31.1855 3.78571C31.1589 3.74981 31.1137 3.72044 31.085 3.72044C31.0563 3.72044 31.011 3.69107 30.9845 3.65517C30.9579 3.61927 30.9127 3.5899 30.884 3.5899C30.8553 3.5899 30.8101 3.56053 30.7835 3.52463C30.7569 3.48873 30.7117 3.45936 30.683 3.45936C30.6543 3.45936 30.6091 3.42999 30.5825 3.39409C30.556 3.35819 30.5107 3.32882 30.482 3.32882C30.4533 3.32882 30.4081 3.29944 30.3815 3.26354C30.355 3.22765 30.3064 3.19827 30.2737 3.19827C30.2409 3.19827 30.2141 3.18359 30.2141 3.16564C30.2141 3.14769 30.1872 3.133 30.1545 3.133C30.1217 3.133 30.0731 3.10363 30.0466 3.06773C30.02 3.03183 29.9715 3.00246 29.9387 3.00246C29.9059 3.00246 29.8791 2.98778 29.8791 2.96983C29.8791 2.95188 29.8522 2.93719 29.8195 2.93719C29.7867 2.93719 29.7382 2.90782 29.7116 2.87192C29.685 2.83602 29.6365 2.80665 29.6037 2.80665C29.571 2.80665 29.5441 2.79196 29.5441 2.77401C29.5441 2.75606 29.514 2.74138 29.4771 2.74138C29.4403 2.74138 29.4101 2.72669 29.4101 2.70874C29.4101 2.69079 29.38 2.67611 29.3431 2.67611C29.3063 2.67611 29.2761 2.66142 29.2761 2.64347C29.2761 2.62552 29.246 2.61084 29.2092 2.61084C29.1723 2.61084 29.1422 2.59615 29.1422 2.5782C29.1422 2.56025 29.1153 2.54557 29.0826 2.54557C29.0498 2.54557 29.0012 2.51619 28.9747 2.48029C28.9481 2.4444 28.8996 2.41502 28.8668 2.41502C28.834 2.41502 28.8072 2.40034 28.8072 2.38239C28.8072 2.36444 28.777 2.34975 28.7402 2.34975C28.7034 2.34975 28.6732 2.33507 28.6732 2.31712C28.6732 2.29917 28.6431 2.28448 28.6062 2.28448C28.5694 2.28448 28.5392 2.2698 28.5392 2.25185C28.5392 2.2339 28.494 2.21921 28.4387 2.21921C28.3835 2.21921 28.3382 2.20452 28.3382 2.18658C28.3382 2.16863 28.3081 2.15394 28.2712 2.15394C28.2344 2.15394 28.2042 2.13925 28.2042 2.1213C28.2042 2.10335 28.1741 2.08867 28.1373 2.08867C28.1004 2.08867 28.0703 2.07398 28.0703 2.05603C28.0703 2.03808 28.0401 2.0234 28.0033 2.0234C27.9664 2.0234 27.9363 2.00871 27.9363 1.99076C27.9363 1.97281 27.9061 1.95813 27.8693 1.95813C27.8324 1.95813 27.8023 1.94344 27.8023 1.92549C27.8023 1.90754 27.7721 1.89286 27.7353 1.89286C27.6984 1.89286 27.6683 1.87817 27.6683 1.86022C27.6683 1.84227 27.6231 1.82759 27.5678 1.82759C27.5125 1.82759 27.4673 1.8129 27.4673 1.79495C27.4673 1.777 27.4372 1.76231 27.4003 1.76231C27.3635 1.76231 27.3333 1.74763 27.3333 1.72968C27.3333 1.71173 27.3032 1.69704 27.2663 1.69704C27.2295 1.69704 27.1993 1.68236 27.1993 1.66441C27.1993 1.64646 27.1541 1.63177 27.0989 1.63177C27.0436 1.63177 26.9984 1.61709 26.9984 1.59914C26.9984 1.58119 26.9682 1.5665 26.9314 1.5665C26.8945 1.5665 26.8644 1.55182 26.8644 1.53387C26.8644 1.51592 26.8192 1.50123 26.7639 1.50123C26.7086 1.50123 26.6634 1.48654 26.6634 1.4686C26.6634 1.45065 26.6333 1.43596 26.5964 1.43596C26.5596 1.43596 26.5294 1.42127 26.5294 1.40332C26.5294 1.38537 26.4842 1.37069 26.4289 1.37069C26.3737 1.37069 26.3284 1.356 26.3284 1.33805C26.3284 1.3201 26.2832 1.30542 26.2279 1.30542C26.1727 1.30542 26.1275 1.29073 26.1275 1.27278C26.1275 1.25483 26.0822 1.24015 26.027 1.24015C25.9717 1.24015 25.9265 1.22546 25.9265 1.20751C25.9265 1.18956 25.8963 1.17488 25.8595 1.17488C25.8226 1.17488 25.7925 1.16019 25.7925 1.14224C25.7925 1.12429 25.7473 1.10961 25.692 1.10961C25.6367 1.10961 25.5915 1.09492 25.5915 1.07697C25.5915 1.05902 25.5312 1.04433 25.4575 1.04433C25.3838 1.04433 25.3235 1.02965 25.3235 1.0117C25.3235 0.993749 25.2783 0.979063 25.223 0.979063C25.1678 0.979063 25.1225 0.964378 25.1225 0.946428C25.1225 0.928479 25.0773 0.913793 25.0221 0.913793C24.9668 0.913793 24.9216 0.899107 24.9216 0.881157C24.9216 0.863208 24.8763 0.848522 24.8211 0.848522C24.7658 0.848522 24.7206 0.833836 24.7206 0.815886C24.7206 0.797937 24.6603 0.783251 24.5866 0.783251C24.5129 0.783251 24.4526 0.768565 24.4526 0.750615C24.4526 0.732666 24.4074 0.71798 24.3521 0.71798C24.2969 0.71798 24.2516 0.703294 24.2516 0.685344C24.2516 0.667395 24.1913 0.652709 24.1176 0.652709C24.044 0.652709 23.9837 0.638023 23.9837 0.620074C23.9837 0.602124 23.9234 0.587438 23.8497 0.587438C23.776 0.587438 23.7157 0.572752 23.7157 0.554803C23.7157 0.536853 23.6403 0.522167 23.5482 0.522167C23.4561 0.522167 23.3807 0.507481 23.3807 0.489532C23.3807 0.471582 23.3204 0.456896 23.2467 0.456896C23.173 0.456896 23.1127 0.44221 23.1127 0.424261C23.1127 0.406311 23.0374 0.391625 22.9453 0.391625C22.8531 0.391625 22.7778 0.376939 22.7778 0.35899C22.7778 0.340845 22.6884 0.326354 22.5768 0.326354C22.4652 0.326354 22.3758 0.311864 22.3758 0.293719C22.3758 0.275574 22.2865 0.261084 22.1748 0.261084C22.0632 0.261084 21.9739 0.246593 21.9739 0.228448C21.9739 0.209813 21.8734 0.195813 21.7394 0.195813C21.6054 0.195813 21.5049 0.181812 21.5049 0.163177C21.5049 0.143824 21.3821 0.130542 21.2034 0.130542C21.0248 0.130542 20.902 0.117259 20.902 0.0979064C20.902 0.0781293 20.7568 0.0652709 20.5335 0.0652709C20.3102 0.0652709 20.165 0.0524125 20.165 0.0326355C20.165 0.0113245 19.5956 0 18.5237 0C17.4518 0 16.8824 0.0113245 16.8824 0.0326355ZM17.7533 14.7186C17.7533 14.7372 17.6528 14.7512 17.5188 14.7512C17.3848 14.7512 17.2843 14.7652 17.2843 14.7839C17.2843 14.8018 17.2089 14.8165 17.1168 14.8165C17.0247 14.8165 16.9493 14.8312 16.9493 14.8491C16.9493 14.8671 16.8891 14.8818 16.8154 14.8818C16.7417 14.8818 16.6814 14.8965 16.6814 14.9144C16.6814 14.9323 16.6211 14.947 16.5474 14.947C16.4737 14.947 16.4134 14.9617 16.4134 14.9797C16.4134 14.9976 16.3682 15.0123 16.3129 15.0123C16.2576 15.0123 16.2124 15.027 16.2124 15.0449C16.2124 15.0629 16.1672 15.0776 16.1119 15.0776C16.0567 15.0776 16.0114 15.0923 16.0114 15.1102C16.0114 15.1282 15.9662 15.1428 15.9109 15.1428C15.8557 15.1428 15.8105 15.1575 15.8105 15.1755C15.8105 15.1934 15.7803 15.2081 15.7435 15.2081C15.7066 15.2081 15.6765 15.2228 15.6765 15.2408C15.6765 15.2587 15.6463 15.2734 15.6095 15.2734C15.5726 15.2734 15.5425 15.2881 15.5425 15.306C15.5425 15.324 15.5123 15.3387 15.4755 15.3387C15.4386 15.3387 15.4085 15.3533 15.4085 15.3713C15.4085 15.3892 15.3633 15.4039 15.308 15.4039C15.2527 15.4039 15.2075 15.4186 15.2075 15.4366C15.2075 15.4545 15.1807 15.4692 15.1479 15.4692C15.1151 15.4692 15.0666 15.4986 15.04 15.5345C15.0135 15.5704 14.9649 15.5997 14.9321 15.5997C14.8994 15.5997 14.8725 15.6144 14.8725 15.6324C14.8725 15.6503 14.8424 15.665 14.8056 15.665C14.7687 15.665 14.7386 15.6797 14.7386 15.6977C14.7386 15.7156 14.7117 15.7303 14.679 15.7303C14.6462 15.7303 14.5976 15.7597 14.5711 15.7956C14.5445 15.8315 14.4993 15.8608 14.4706 15.8608C14.4419 15.8608 14.3967 15.8902 14.3701 15.9261C14.3435 15.962 14.301 15.9914 14.2756 15.9914C14.2503 15.9914 14.1872 16.0354 14.1356 16.0893C14.084 16.1431 14.024 16.1872 14.0023 16.1872C13.9806 16.1872 13.905 16.2459 13.8342 16.3177C13.7633 16.3895 13.689 16.4483 13.669 16.4483C13.6214 16.4483 12.7958 17.2527 12.7958 17.299C12.7958 17.3186 12.7355 17.391 12.6618 17.46C12.5881 17.529 12.5278 17.6027 12.5278 17.6238C12.5278 17.6449 12.4826 17.7034 12.4273 17.7537C12.372 17.804 12.3268 17.8654 12.3268 17.8901C12.3268 17.9148 12.2966 17.9563 12.2598 17.9821C12.223 18.008 12.1928 18.0521 12.1928 18.08C12.1928 18.108 12.1627 18.1521 12.1258 18.1779C12.089 18.2038 12.0588 18.2511 12.0588 18.2831C12.0588 18.315 12.0437 18.3411 12.0253 18.3411C12.0069 18.3411 11.9918 18.3705 11.9918 18.4064C11.9918 18.4423 11.9768 18.4717 11.9583 18.4717C11.9399 18.4717 11.9248 18.501 11.9248 18.5369C11.9248 18.5728 11.9098 18.6022 11.8913 18.6022C11.8729 18.6022 11.8578 18.6316 11.8578 18.6675C11.8578 18.7034 11.8428 18.7327 11.8243 18.7327C11.8059 18.7327 11.7908 18.7621 11.7908 18.798C11.7908 18.8339 11.7758 18.8633 11.7574 18.8633C11.7389 18.8633 11.7239 18.8927 11.7239 18.9286C11.7239 18.9645 11.7088 18.9938 11.6904 18.9938C11.6719 18.9938 11.6569 19.0232 11.6569 19.0591C11.6569 19.095 11.6418 19.1244 11.6234 19.1244C11.6049 19.1244 11.5899 19.1684 11.5899 19.2223C11.5899 19.2761 11.5748 19.3202 11.5564 19.3202C11.5379 19.3202 11.5229 19.3496 11.5229 19.3855C11.5229 19.4214 11.5078 19.4507 11.4894 19.4507C11.471 19.4507 11.4559 19.4948 11.4559 19.5486C11.4559 19.6025 11.4408 19.6465 11.4224 19.6465C11.404 19.6465 11.3889 19.6906 11.3889 19.7444C11.3889 19.7983 11.3738 19.8424 11.3554 19.8424C11.337 19.8424 11.3219 19.8864 11.3219 19.9403C11.3219 19.9941 11.3068 20.0382 11.2884 20.0382C11.27 20.0382 11.2549 20.0969 11.2549 20.1687C11.2549 20.2405 11.2398 20.2992 11.2214 20.2992C11.203 20.2992 11.1879 20.358 11.1879 20.4298C11.1879 20.5016 11.1728 20.5603 11.1544 20.5603C11.136 20.5603 11.1209 20.6338 11.1209 20.7235C11.1209 20.8133 11.1058 20.8867 11.0874 20.8867C11.0679 20.8867 11.0539 20.9955 11.0539 21.1478C11.0539 21.3001 11.04 21.4089 11.0204 21.4089C10.9992 21.4089 10.9869 21.6591 10.9869 22.0942C10.9869 22.5293 10.9992 22.7795 11.0204 22.7795C11.04 22.7795 11.0539 22.8883 11.0539 23.0406C11.0539 23.1929 11.0679 23.3017 11.0874 23.3017C11.1058 23.3017 11.1209 23.3751 11.1209 23.4649C11.1209 23.5546 11.136 23.6281 11.1544 23.6281C11.1728 23.6281 11.1879 23.7015 11.1879 23.7912C11.1879 23.881 11.203 23.9544 11.2214 23.9544C11.2398 23.9544 11.2549 23.9985 11.2549 24.0523C11.2549 24.1062 11.27 24.1502 11.2884 24.1502C11.3068 24.1502 11.3219 24.209 11.3219 24.2808C11.3219 24.3526 11.337 24.4113 11.3554 24.4113C11.3738 24.4113 11.3889 24.4554 11.3889 24.5092C11.3889 24.5631 11.404 24.6071 11.4224 24.6071C11.4408 24.6071 11.4559 24.6512 11.4559 24.705C11.4559 24.7589 11.471 24.8029 11.4894 24.8029C11.5078 24.8029 11.5229 24.8323 11.5229 24.8682C11.5229 24.9041 11.5379 24.9335 11.5564 24.9335C11.5748 24.9335 11.5899 24.9775 11.5899 25.0314C11.5899 25.0852 11.6049 25.1293 11.6234 25.1293C11.6418 25.1293 11.6569 25.1587 11.6569 25.1946C11.6569 25.2305 11.6719 25.2598 11.6904 25.2598C11.7088 25.2598 11.7239 25.2892 11.7239 25.3251C11.7239 25.361 11.7389 25.3904 11.7574 25.3904C11.7758 25.3904 11.7908 25.4198 11.7908 25.4557C11.7908 25.4916 11.8059 25.5209 11.8243 25.5209C11.8428 25.5209 11.8578 25.5503 11.8578 25.5862C11.8578 25.6221 11.8729 25.6515 11.8913 25.6515C11.9098 25.6515 11.9248 25.6808 11.9248 25.7167C11.9248 25.7526 11.9399 25.782 11.9583 25.782C11.9768 25.782 11.9918 25.8081 11.9918 25.8401C11.9918 25.872 12.022 25.9193 12.0588 25.9452C12.0957 25.9711 12.1258 26.0151 12.1258 26.0431C12.1258 26.0711 12.156 26.1151 12.1928 26.141C12.2297 26.1669 12.2598 26.2109 12.2598 26.2389C12.2598 26.2669 12.29 26.3109 12.3268 26.3368C12.3636 26.3627 12.3938 26.4041 12.3938 26.4288C12.3938 26.4535 12.439 26.515 12.4943 26.5653C12.5496 26.6155 12.5948 26.6738 12.5948 26.6947C12.5948 26.7156 12.6701 26.8042 12.7623 26.8916C12.8544 26.979 12.9297 27.0664 12.9297 27.0858C12.9297 27.1317 13.4872 27.6749 13.5344 27.6749C13.5542 27.6749 13.6439 27.7483 13.7337 27.838C13.8234 27.9278 13.9143 28.0012 13.9358 28.0012C13.9572 28.0012 14.017 28.0453 14.0686 28.0991C14.1202 28.153 14.1833 28.197 14.2086 28.197C14.234 28.197 14.2765 28.2264 14.3031 28.2623C14.3297 28.2982 14.3749 28.3276 14.4036 28.3276C14.4323 28.3276 14.4775 28.3569 14.5041 28.3928C14.5306 28.4287 14.5759 28.4581 14.6046 28.4581C14.6333 28.4581 14.6785 28.4875 14.7051 28.5234C14.7316 28.5593 14.7802 28.5887 14.8129 28.5887C14.8457 28.5887 14.8725 28.6033 14.8725 28.6213C14.8725 28.6392 14.9027 28.6539 14.9395 28.6539C14.9764 28.6539 15.0065 28.6686 15.0065 28.6866C15.0065 28.7045 15.0367 28.7192 15.0735 28.7192C15.1104 28.7192 15.1405 28.7339 15.1405 28.7518C15.1405 28.7698 15.1707 28.7845 15.2075 28.7845C15.2444 28.7845 15.2745 28.7992 15.2745 28.8171C15.2745 28.8351 15.3047 28.8497 15.3415 28.8497C15.3784 28.8497 15.4085 28.8644 15.4085 28.8824C15.4085 28.9003 15.4386 28.915 15.4755 28.915C15.5123 28.915 15.5425 28.9297 15.5425 28.9476C15.5425 28.9656 15.5726 28.9803 15.6095 28.9803C15.6463 28.9803 15.6765 28.995 15.6765 29.0129C15.6765 29.0309 15.7217 29.0456 15.777 29.0456C15.8322 29.0456 15.8775 29.0602 15.8775 29.0782C15.8775 29.0961 15.9076 29.1108 15.9444 29.1108C15.9813 29.1108 16.0114 29.1255 16.0114 29.1435C16.0114 29.1614 16.0567 29.1761 16.1119 29.1761C16.1672 29.1761 16.2124 29.1908 16.2124 29.2087C16.2124 29.2267 16.2576 29.2414 16.3129 29.2414C16.3682 29.2414 16.4134 29.2561 16.4134 29.274C16.4134 29.2919 16.4737 29.3066 16.5474 29.3066C16.6211 29.3066 16.6814 29.3213 16.6814 29.3393C16.6814 29.3572 16.7417 29.3719 16.8154 29.3719C16.8891 29.3719 16.9493 29.3866 16.9493 29.4045C16.9493 29.4225 17.0247 29.4372 17.1168 29.4372C17.2089 29.4372 17.2843 29.4519 17.2843 29.4698C17.2843 29.4884 17.3848 29.5024 17.5188 29.5024C17.6528 29.5024 17.7533 29.5164 17.7533 29.5351C17.7533 29.556 18.0771 29.5677 18.6577 29.5677C19.2383 29.5677 19.5621 29.556 19.5621 29.5351C19.5621 29.5164 19.6626 29.5024 19.7966 29.5024C19.9306 29.5024 20.031 29.4884 20.031 29.4698C20.031 29.4519 20.1064 29.4372 20.1985 29.4372C20.2906 29.4372 20.366 29.4225 20.366 29.4045C20.366 29.3866 20.4263 29.3719 20.5 29.3719C20.5737 29.3719 20.634 29.3572 20.634 29.3393C20.634 29.3213 20.6943 29.3066 20.768 29.3066C20.8417 29.3066 20.902 29.2919 20.902 29.274C20.902 29.2561 20.9472 29.2414 21.0025 29.2414C21.0577 29.2414 21.1029 29.2267 21.1029 29.2087C21.1029 29.1908 21.1482 29.1761 21.2034 29.1761C21.2587 29.1761 21.3039 29.1614 21.3039 29.1435C21.3039 29.1255 21.3341 29.1108 21.3709 29.1108C21.4078 29.1108 21.4379 29.0961 21.4379 29.0782C21.4379 29.0602 21.4831 29.0456 21.5384 29.0456C21.5937 29.0456 21.6389 29.0309 21.6389 29.0129C21.6389 28.995 21.669 28.9803 21.7059 28.9803C21.7427 28.9803 21.7729 28.9656 21.7729 28.9476C21.7729 28.9297 21.803 28.915 21.8399 28.915C21.8767 28.915 21.9069 28.9003 21.9069 28.8824C21.9069 28.8644 21.937 28.8497 21.9739 28.8497C22.0107 28.8497 22.0408 28.8351 22.0408 28.8171C22.0408 28.7992 22.071 28.7845 22.1078 28.7845C22.1447 28.7845 22.1748 28.7698 22.1748 28.7518C22.1748 28.7339 22.205 28.7192 22.2418 28.7192C22.2787 28.7192 22.3088 28.7045 22.3088 28.6866C22.3088 28.6686 22.339 28.6539 22.3758 28.6539C22.4127 28.6539 22.4428 28.6392 22.4428 28.6213C22.4428 28.6033 22.473 28.5887 22.5098 28.5887C22.5467 28.5887 22.5768 28.574 22.5768 28.556C22.5768 28.5381 22.6036 28.5234 22.6364 28.5234C22.6692 28.5234 22.7177 28.494 22.7443 28.4581C22.7708 28.4222 22.8133 28.3928 22.8387 28.3928C22.8641 28.3928 22.9271 28.3488 22.9788 28.2949C23.0304 28.2411 23.0907 28.197 23.1127 28.197C23.1348 28.197 23.1951 28.153 23.2467 28.0991C23.2983 28.0453 23.3583 28.0012 23.3801 28.0012C23.4017 28.0012 23.4774 27.9425 23.5482 27.8707C23.619 27.7989 23.6934 27.7401 23.7134 27.7401C23.7608 27.7401 24.4526 27.0665 24.4526 27.0204C24.4526 27.0011 24.528 26.9138 24.6201 26.8263C24.7122 26.7389 24.7876 26.6477 24.7876 26.6235C24.7876 26.5994 24.8177 26.5585 24.8546 26.5326C24.8914 26.5067 24.9216 26.4653 24.9216 26.4406C24.9216 26.4159 24.9668 26.3545 25.0221 26.3042C25.0773 26.2539 25.1225 26.1892 25.1225 26.1605C25.1225 26.1318 25.1376 26.1084 25.156 26.1084C25.1745 26.1084 25.1895 26.0822 25.1895 26.0503C25.1895 26.0183 25.2197 25.9711 25.2565 25.9452C25.2934 25.9193 25.3235 25.872 25.3235 25.8401C25.3235 25.8081 25.3386 25.782 25.357 25.782C25.3755 25.782 25.3905 25.7559 25.3905 25.7239C25.3905 25.692 25.4207 25.6447 25.4575 25.6188C25.4944 25.5929 25.5245 25.5457 25.5245 25.5137C25.5245 25.4818 25.5396 25.4557 25.558 25.4557C25.5764 25.4557 25.5915 25.4263 25.5915 25.3904C25.5915 25.3545 25.6066 25.3251 25.625 25.3251C25.6434 25.3251 25.6585 25.2957 25.6585 25.2598C25.6585 25.2239 25.6736 25.1946 25.692 25.1946C25.7104 25.1946 25.7255 25.1505 25.7255 25.0967C25.7255 25.0428 25.7406 24.9988 25.759 24.9988C25.7774 24.9988 25.7925 24.9694 25.7925 24.9335C25.7925 24.8976 25.8076 24.8682 25.826 24.8682C25.8444 24.8682 25.8595 24.8242 25.8595 24.7703C25.8595 24.7165 25.8746 24.6724 25.893 24.6724C25.9114 24.6724 25.9265 24.643 25.9265 24.6071C25.9265 24.5712 25.9415 24.5419 25.96 24.5419C25.9784 24.5419 25.9935 24.4978 25.9935 24.444C25.9935 24.3901 26.0085 24.346 26.027 24.346C26.0454 24.346 26.0605 24.2873 26.0605 24.2155C26.0605 24.1437 26.0755 24.085 26.094 24.085C26.1124 24.085 26.1275 24.0262 26.1275 23.9544C26.1275 23.8826 26.1425 23.8239 26.1609 23.8239C26.1796 23.8239 26.1944 23.7368 26.1944 23.6281C26.1944 23.5193 26.2093 23.4323 26.2279 23.4323C26.2471 23.4323 26.2614 23.3343 26.2614 23.2038C26.2614 23.0733 26.2758 22.9754 26.2949 22.9754C26.3164 22.9754 26.3284 22.6599 26.3284 22.0942C26.3284 21.5285 26.3164 21.213 26.2949 21.213C26.2758 21.213 26.2614 21.1151 26.2614 20.9846C26.2614 20.8541 26.2471 20.7561 26.2279 20.7561C26.2093 20.7561 26.1944 20.6691 26.1944 20.5603C26.1944 20.4516 26.1796 20.3645 26.1609 20.3645C26.1425 20.3645 26.1275 20.3058 26.1275 20.234C26.1275 20.1622 26.1124 20.1034 26.094 20.1034C26.0755 20.1034 26.0605 20.0594 26.0605 20.0055C26.0605 19.9517 26.0454 19.9076 26.027 19.9076C26.0085 19.9076 25.9935 19.8636 25.9935 19.8097C25.9935 19.7559 25.9784 19.7118 25.96 19.7118C25.9415 19.7118 25.9265 19.6678 25.9265 19.6139C25.9265 19.5601 25.9114 19.516 25.893 19.516C25.8746 19.516 25.8595 19.4866 25.8595 19.4507C25.8595 19.4148 25.8444 19.3855 25.826 19.3855C25.8076 19.3855 25.7925 19.3414 25.7925 19.2875C25.7925 19.2337 25.7774 19.1896 25.759 19.1896C25.7406 19.1896 25.7255 19.1603 25.7255 19.1244C25.7255 19.0885 25.7104 19.0591 25.692 19.0591C25.6736 19.0591 25.6585 19.0297 25.6585 18.9938C25.6585 18.9579 25.6434 18.9286 25.625 18.9286C25.6066 18.9286 25.5915 18.8992 25.5915 18.8633C25.5915 18.8274 25.5764 18.798 25.558 18.798C25.5396 18.798 25.5245 18.7719 25.5245 18.74C25.5245 18.708 25.4944 18.6607 25.4575 18.6348C25.4207 18.609 25.3905 18.5617 25.3905 18.5297C25.3905 18.4978 25.3755 18.4717 25.357 18.4717C25.3386 18.4717 25.3235 18.4423 25.3235 18.4064C25.3235 18.3705 25.3085 18.3411 25.29 18.3411C25.2716 18.3411 25.2565 18.315 25.2565 18.2831C25.2565 18.2511 25.2264 18.2038 25.1895 18.1779C25.1527 18.1521 25.1225 18.108 25.1225 18.08C25.1225 18.0521 25.0924 18.008 25.0556 17.9821C25.0187 17.9563 24.9886 17.9148 24.9886 17.8901C24.9886 17.8654 24.9433 17.804 24.8881 17.7537C24.8328 17.7034 24.7876 17.6449 24.7876 17.6238C24.7876 17.6027 24.7273 17.529 24.6536 17.46C24.5799 17.391 24.5196 17.3186 24.5196 17.299C24.5196 17.2527 23.627 16.383 23.5794 16.383C23.5594 16.383 23.485 16.3243 23.4142 16.2525C23.3434 16.1807 23.265 16.1219 23.24 16.1219C23.215 16.1219 23.1728 16.0925 23.1462 16.0566C23.1197 16.0207 23.0745 15.9914 23.0458 15.9914C23.017 15.9914 22.9718 15.962 22.9453 15.9261C22.9187 15.8902 22.8735 15.8608 22.8448 15.8608C22.8161 15.8608 22.7708 15.8315 22.7443 15.7956C22.7177 15.7597 22.6692 15.7303 22.6364 15.7303C22.6036 15.7303 22.5768 15.7156 22.5768 15.6977C22.5768 15.6797 22.55 15.665 22.5172 15.665C22.4844 15.665 22.4359 15.6356 22.4093 15.5997C22.3828 15.5638 22.3342 15.5345 22.3014 15.5345C22.2687 15.5345 22.2418 15.5198 22.2418 15.5018C22.2418 15.4839 22.2117 15.4692 22.1748 15.4692C22.138 15.4692 22.1078 15.4545 22.1078 15.4366C22.1078 15.4186 22.0777 15.4039 22.0408 15.4039C22.004 15.4039 21.9739 15.3892 21.9739 15.3713C21.9739 15.3533 21.9437 15.3387 21.9069 15.3387C21.87 15.3387 21.8399 15.324 21.8399 15.306C21.8399 15.2881 21.7946 15.2734 21.7394 15.2734C21.6841 15.2734 21.6389 15.2587 21.6389 15.2408C21.6389 15.2228 21.6087 15.2081 21.5719 15.2081C21.5351 15.2081 21.5049 15.1934 21.5049 15.1755C21.5049 15.1575 21.4597 15.1428 21.4044 15.1428C21.3491 15.1428 21.3039 15.1282 21.3039 15.1102C21.3039 15.0923 21.2587 15.0776 21.2034 15.0776C21.1482 15.0776 21.1029 15.0629 21.1029 15.0449C21.1029 15.027 21.0577 15.0123 21.0025 15.0123C20.9472 15.0123 20.902 14.9976 20.902 14.9797C20.902 14.9617 20.8417 14.947 20.768 14.947C20.6943 14.947 20.634 14.9323 20.634 14.9144C20.634 14.8965 20.5737 14.8818 20.5 14.8818C20.4263 14.8818 20.366 14.8671 20.366 14.8491C20.366 14.8312 20.3057 14.8165 20.232 14.8165C20.1583 14.8165 20.098 14.8018 20.098 14.7839C20.098 14.7652 19.9975 14.7512 19.8636 14.7512C19.7296 14.7512 19.6291 14.7372 19.6291 14.7186C19.6291 14.6976 19.2941 14.686 18.6912 14.686C18.0882 14.686 17.7533 14.6976 17.7533 14.7186Z" fill="#492979"/>
</svg>
