<svg width="40" height="40" viewBox="0 0 40 40" fill="none" xmlns="http://www.w3.org/2000/svg">
<path opacity="0.4" d="M26.7926 3.33334H32.4359C34.773 3.33334 36.6668 5.2431 36.6668 7.59995V13.2909C36.6668 15.6477 34.773 17.5575 32.4359 17.5575H26.7926C24.4555 17.5575 22.5618 15.6477 22.5618 13.2909V7.59995C22.5618 5.2431 24.4555 3.33334 26.7926 3.33334Z" fill="#5A3F86"/>
<path d="M13.2074 22.4425C15.5445 22.4425 17.4383 24.3523 17.4383 26.7091V32.4001C17.4383 34.7553 15.5445 36.6667 13.2074 36.6667H7.56413C5.22701 36.6667 3.33325 34.7553 3.33325 32.4001V26.7091C3.33325 24.3523 5.22701 22.4425 7.56413 22.4425H13.2074ZM32.4357 22.4425C34.7728 22.4425 36.6666 24.3523 36.6666 26.7091V32.4001C36.6666 34.7553 34.7728 36.6667 32.4357 36.6667H26.7924C24.4553 36.6667 22.5616 34.7553 22.5616 32.4001V26.7091C22.5616 24.3523 24.4553 22.4425 26.7924 22.4425H32.4357ZM13.2074 3.33334C15.5445 3.33334 17.4383 5.2431 17.4383 7.59995V13.2909C17.4383 15.6477 15.5445 17.5575 13.2074 17.5575H7.56413C5.22701 17.5575 3.33325 15.6477 3.33325 13.2909V7.59995C3.33325 5.2431 5.22701 3.33334 7.56413 3.33334H13.2074Z" fill="#5A3F86"/>
</svg>
