<svg width="29" height="34" viewBox="0 0 29 34" fill="none" xmlns="http://www.w3.org/2000/svg">
<path d="M10.7709 28.7103C11.604 28.5341 16.6805 28.5341 17.5136 28.7103C18.2258 28.8748 18.9959 29.2592 18.9959 30.0984C18.9545 30.8973 18.4858 31.6056 17.8382 32.0554C16.9985 32.71 16.013 33.1246 14.9828 33.274C14.413 33.3478 13.8532 33.3495 13.3033 33.274C12.2715 33.1246 11.286 32.71 10.4479 32.0538C9.79866 31.6056 9.32994 30.8973 9.28853 30.0984C9.28853 29.2592 10.0587 28.8748 10.7709 28.7103ZM14.2406 0C17.7072 0 21.2483 1.64487 23.3518 4.374C24.7165 6.13133 25.3426 7.88697 25.3426 10.6161V11.3261C25.3426 13.4191 25.8958 14.6527 27.1131 16.0744C28.0357 17.1217 28.3305 18.4662 28.3305 19.9247C28.3305 21.3816 27.8518 22.7646 26.8929 23.8875C25.6374 25.2336 23.8669 26.093 22.0599 26.2423C19.4413 26.4656 16.8211 26.6536 14.1661 26.6536C11.5094 26.6536 8.89086 26.5411 6.27229 26.2423C4.46365 26.093 2.6931 25.2336 1.4393 23.8875C0.480318 22.7646 0 21.3816 0 19.9247C0 18.4662 0.296472 17.1217 1.21736 16.0744C2.47281 14.6527 2.98957 13.4191 2.98957 11.3261V10.6161C2.98957 7.81312 3.68851 5.98027 5.12781 4.18602C7.26771 1.56934 10.6978 0 14.0915 0H14.2406Z" fill="#BDBDBD"/>
</svg>
