<svg width="40" height="40" viewBox="0 0 40 40" fill="none" xmlns="http://www.w3.org/2000/svg">
<path d="M20.0199 24.717C17.3458 24.717 15.1826 22.6336 15.1826 20.017C15.1826 17.4003 17.3458 15.3003 20.0199 15.3003C22.694 15.3003 24.806 17.4003 24.806 20.017C24.806 22.6336 22.694 24.717 20.0199 24.717Z" fill="#BDBDBD"/>
<path opacity="0.4" d="M35.3831 23.9503C35.0595 23.4503 34.5996 22.9503 34.0035 22.6336C33.5266 22.4003 33.22 22.0169 32.9475 21.5669C32.0788 20.1336 32.5898 18.2503 34.0376 17.4003C35.7408 16.4503 36.2859 14.3336 35.298 12.6836L34.1568 10.7169C33.1859 9.06695 31.0569 8.48361 29.3706 9.45028C27.8718 10.2503 25.9471 9.71695 25.0784 8.30028C24.8059 7.83361 24.6526 7.33361 24.6867 6.83361C24.7378 6.18361 24.5334 5.56695 24.2268 5.06695C23.5966 4.03361 22.4554 3.33361 21.195 3.33361H18.7934C17.55 3.36695 16.4088 4.03361 15.7786 5.06695C15.455 5.56695 15.2676 6.18361 15.3017 6.83361C15.3357 7.33361 15.1825 7.83361 14.9099 8.30028C14.0413 9.71695 12.1166 10.2503 10.6347 9.45028C8.93148 8.48361 6.81944 9.06695 5.83154 10.7169L4.69036 12.6836C3.7195 14.3336 4.26454 16.4503 5.95077 17.4003C7.39854 18.2503 7.90952 20.1336 7.05789 21.5669C6.76834 22.0169 6.46175 22.4003 5.98484 22.6336C5.40573 22.9503 4.89475 23.4503 4.62223 23.9503C3.99202 24.9836 4.02609 26.2836 4.65629 27.3669L5.83154 29.3669C6.46175 30.4336 7.637 31.1003 8.86335 31.1003C9.44246 31.1003 10.1238 30.9336 10.6688 30.6003C11.0946 30.3169 11.6056 30.2169 12.1677 30.2169C13.8539 30.2169 15.2676 31.6003 15.3017 33.2503C15.3017 35.1669 16.8687 36.6669 18.8445 36.6669H21.1609C23.1197 36.6669 24.6867 35.1669 24.6867 33.2503C24.7378 31.6003 26.1515 30.2169 27.8377 30.2169C28.3827 30.2169 28.8937 30.3169 29.3366 30.6003C29.8816 30.9336 30.5459 31.1003 31.142 31.1003C32.3513 31.1003 33.5266 30.4336 34.1568 29.3669L35.3491 27.3669C35.9622 26.2503 36.0133 24.9836 35.3831 23.9503Z" fill="#BDBDBD"/>
</svg>
