<svg width="33" height="32" viewBox="0 0 33 32" fill="none" xmlns="http://www.w3.org/2000/svg">
<path d="M26.5887 19.5561C25.5504 19.557 24.5279 19.8032 23.6094 20.2733C22.6909 20.7434 21.9041 21.4233 21.3167 22.2545L12.3771 18.3358C13.0096 16.8464 13.0096 15.1745 12.3771 13.685L21.3041 9.74653C22.1748 10.9687 23.4679 11.8475 24.9489 12.2234C26.4299 12.5994 28.0006 12.4477 29.3762 11.7958C30.7518 11.1438 31.8412 10.0349 32.4466 8.67015C33.0521 7.30538 33.1336 5.77516 32.6764 4.35705C32.2191 2.93895 31.2534 1.72689 29.9544 0.940731C28.6554 0.154576 27.1092 -0.153601 25.5961 0.0720992C24.0831 0.2978 22.7035 1.04243 21.7076 2.17092C20.7118 3.29941 20.1655 4.737 20.168 6.22295C20.1739 6.57466 20.2107 6.92524 20.278 7.27087L10.7947 11.458C9.88314 10.629 8.74203 10.0766 7.5115 9.8685C6.28097 9.66043 5.01462 9.80581 3.86804 10.2868C2.72146 10.7677 1.74458 11.5633 1.05742 12.5758C0.370255 13.5883 0.00273648 14.7736 1.52221e-05 15.9861C-0.00270603 17.1985 0.359488 18.3854 1.0421 19.4008C1.72471 20.4162 2.69801 21.2159 3.84242 21.7017C4.98683 22.1875 6.25251 22.3382 7.48396 22.1354C8.71542 21.9325 9.859 21.3849 10.7742 20.5598L20.289 24.7301C20.223 25.0754 20.1867 25.4254 20.1806 25.7765C20.1803 27.0072 20.556 28.2104 21.2602 29.2338C21.9643 30.2573 22.9654 31.055 24.1367 31.5261C25.308 31.9972 26.5969 32.1205 27.8404 31.8805C29.0839 31.6405 30.2261 31.0479 31.1226 30.1776C32.0191 29.3074 32.6296 28.1986 32.8769 26.9915C33.1242 25.7844 32.9971 24.5333 32.5118 23.3963C32.0265 22.2593 31.2047 21.2876 30.1504 20.6041C29.096 19.9205 27.8566 19.5558 26.5887 19.5561ZM26.5887 2.66886C27.3132 2.66856 28.0216 2.87683 28.6242 3.26735C29.2267 3.65786 29.6965 4.21306 29.9739 4.86274C30.2514 5.51242 30.3242 6.22738 30.183 6.9172C30.0419 7.60702 29.6931 8.24072 29.1809 8.73813C28.6687 9.23554 28.016 9.57434 27.3055 9.71165C26.5949 9.84897 25.8583 9.77865 25.1889 9.50958C24.5195 9.24051 23.9474 8.78477 23.5448 8.20002C23.1422 7.61527 22.9274 6.92777 22.9274 6.22447C22.9274 5.28173 23.3131 4.37758 23.9997 3.71081C24.6863 3.04405 25.6175 2.66926 26.5887 2.66886ZM6.44662 19.5561C5.7221 19.5564 5.01376 19.3481 4.41119 18.9576C3.80862 18.5671 3.33889 18.0119 3.06141 17.3622C2.78393 16.7126 2.71117 15.9976 2.85233 15.3078C2.99348 14.6179 3.34222 13.9843 3.85442 13.4868C4.36663 12.9894 5.0193 12.6506 5.72987 12.5133C6.44045 12.376 7.17702 12.4463 7.84642 12.7154C8.51583 12.9845 9.08799 13.4402 9.49054 14.025C9.8931 14.6097 10.108 15.2972 10.108 16.0005C10.108 16.9432 9.72227 17.8474 9.03568 18.5142C8.34909 19.1809 7.41782 19.5557 6.44662 19.5561ZM26.5887 29.3321C25.8641 29.3321 25.1557 29.1235 24.5532 28.7326C23.9508 28.3417 23.4813 27.7861 23.2042 27.1361C22.9271 26.4862 22.8548 25.771 22.9965 25.0812C23.1383 24.3913 23.4876 23.7578 24.0003 23.2607C24.5131 22.7636 25.1662 22.4254 25.877 22.2887C26.5879 22.152 27.3245 22.2231 27.9937 22.4929C28.663 22.7627 29.2347 23.2192 29.6366 23.8045C30.0385 24.3898 30.2526 25.0777 30.2516 25.7811C30.2516 26.7241 29.8657 27.6285 29.1788 28.2953C28.4919 28.9621 27.5602 29.3367 26.5887 29.3367V29.3321Z" fill="#5A5A5A"/>
</svg>
