<svg width="40" height="40" viewBox="0 0 40 40" fill="none" xmlns="http://www.w3.org/2000/svg">
<path d="M15.5821 24.7628C8.9758 24.7628 3.33325 25.7833 3.33325 29.8622C3.33325 33.9442 8.93992 34.9999 15.5821 34.9999C22.1885 34.9999 27.831 33.9794 27.831 29.9005C27.831 25.8184 22.2244 24.7628 15.5821 24.7628Z" fill="#BDBDBD"/>
<path opacity="0.4" d="M15.5821 20.8747C20.0815 20.8747 23.6871 17.3436 23.6871 12.9374C23.6871 8.53108 20.0815 5 15.5821 5C11.0844 5 7.47705 8.53108 7.47705 12.9374C7.47705 17.3436 11.0844 20.8747 15.5821 20.8747Z" fill="#BDBDBD"/>
<path opacity="0.4" d="M26.9556 13.0812C26.9556 15.3251 26.2674 17.4188 25.0606 19.158C24.935 19.3369 25.0459 19.5781 25.2644 19.6164C25.5677 19.6659 25.8792 19.6962 26.1972 19.7026C29.361 19.7841 32.2002 17.7894 32.9846 14.7853C34.1474 10.3279 30.7357 6.32571 26.3897 6.32571C25.9184 6.32571 25.4666 6.37363 25.0263 6.46146C24.966 6.47424 24.9008 6.50299 24.8681 6.55409C24.8257 6.61957 24.8567 6.70422 24.8991 6.76011C26.2054 8.5536 26.9556 10.7368 26.9556 13.0812Z" fill="#BDBDBD"/>
<path d="M36.2983 25.2823C35.7193 24.0733 34.3217 23.2444 32.1952 22.8372C31.1922 22.5976 28.4753 22.2575 25.9492 22.3054C25.9117 22.3102 25.8905 22.3357 25.8873 22.3517C25.8824 22.3772 25.8938 22.4156 25.9427 22.4427C27.1104 23.0081 31.6228 25.4675 31.0553 30.6548C31.0308 30.8815 31.2151 31.0732 31.445 31.0413C32.5556 30.8863 35.4127 30.2843 36.2983 28.4125C36.7891 27.4223 36.7891 26.2725 36.2983 25.2823Z" fill="#BDBDBD"/>
</svg>
