<svg width="133" height="126" viewBox="0 0 133 126" fill="none" xmlns="http://www.w3.org/2000/svg">
<path fill-rule="evenodd" clip-rule="evenodd" d="M61.1798 3.06429C60.0948 3.16141 58.7342 3.33797 57.9011 3.48972C48.7613 5.15468 41.0005 10.7899 36.529 19.0084C36.0155 19.9524 35.9496 20.1548 36.1055 20.3113C36.3423 20.5488 36.5054 20.3959 37.4024 19.0958C37.6926 18.6751 38.1805 18.0154 38.4867 17.6298C39.2281 16.6959 41.2813 14.6428 42.2565 13.8603C43.2317 13.0778 44.9919 11.9023 46.0557 11.3232C53.5067 7.26702 62.4399 7.14581 69.9465 10.9991C76.0167 14.1151 80.5041 19.4268 82.6289 26.0112C85.2345 34.0857 83.5567 42.1156 78.0561 47.8961C74.8363 51.2798 70.4139 53.4921 65.67 54.0921C64.5572 54.2329 61.6508 54.2105 60.5739 54.0528C57.3416 53.5795 54.5641 52.5382 51.9854 50.8329C47.9156 48.1414 44.9068 44.0758 43.5367 39.4163C43.2488 38.4373 43.2014 38.3468 42.9774 38.3468C42.871 38.3468 41.7209 39.4552 39.173 42.0134C35.6805 45.52 35.5211 45.6915 35.5211 45.9421C35.5211 46.4524 37.13 49.3905 38.3716 51.1475C39.6083 52.8975 41.0686 54.4946 45.7831 59.2538C49.6408 63.148 53.5591 66.9927 57.9368 71.1793C61.8475 74.9193 62.3886 75.422 62.6593 75.5666C62.9793 75.7374 63.549 75.745 63.8622 75.5825C64.088 75.4654 65.3606 74.2759 69.3406 70.4615C77.1709 62.9574 83.4755 56.6426 86.1244 53.6505C87.1962 52.4399 87.6943 51.8027 88.4724 50.6469C92.9348 44.0189 94.6395 35.9522 93.2479 28.0489C92.411 23.296 90.1869 18.4866 86.9236 14.3734C85.9565 13.1545 83.5795 10.7696 82.3647 9.79928C78.3482 6.59137 73.8581 4.48968 69.0308 3.55816C67.025 3.17106 66.0688 3.0811 63.71 3.05764C62.4948 3.04549 61.3562 3.04849 61.1798 3.06429ZM61.6023 22.2183C59.3318 22.5902 57.408 23.4881 55.7446 24.9521C53.9034 26.5726 52.5792 28.8678 52.042 31.3696C51.8333 32.3416 51.8181 34.4516 52.0123 35.5137C52.8668 40.1894 56.3228 43.7566 61.0016 44.7924C61.8479 44.9798 63.6917 45.0487 64.6468 44.9288C68.0979 44.4953 71.0799 42.5764 72.9593 39.5799C74.0995 37.7619 74.6673 35.7479 74.6678 33.5197C74.6682 31.4542 74.2358 29.7806 73.2472 28.0218C71.5979 25.0872 68.8166 23.0309 65.5388 22.3224C64.6349 22.1271 62.5034 22.0707 61.6023 22.2183Z" fill="#4B1C7C"/>
<path d="M98.2537 0V0.803263H96.6609V6.00288H95.6794V0.803263H94.0779V0H98.2537Z" fill="#4B1C7C"/>
<path d="M105.49 0V6.00288H104.508V1.89155L102.683 6.00288H102.003L100.169 1.89155V6.00288H99.1875V0H100.247L102.347 4.70729L104.44 0H105.49Z" fill="#4B1C7C"/>
<path d="M14.7294 112.463L6.18853 101.209V112.463H0V86.977H6.18853V98.159L14.657 86.977H21.9313L12.0875 99.466L22.2932 112.463H14.7294Z" fill="#4B1C7C"/>
<path d="M44.2703 102.007C44.2703 102.588 44.2341 103.193 44.1617 103.823H30.1561C30.2526 105.081 30.6507 106.049 31.3504 106.727C32.0742 107.381 32.9548 107.707 33.9923 107.707C35.5364 107.707 36.61 107.054 37.2132 105.747H43.7998C43.462 107.078 42.8468 108.276 41.9541 109.341C41.0855 110.406 39.9878 111.241 38.6608 111.846C37.3338 112.451 35.85 112.754 34.2094 112.754C32.231 112.754 30.4697 112.33 28.9256 111.483C27.3815 110.636 26.1752 109.426 25.3066 107.852C24.438 106.279 24.0037 104.44 24.0037 102.334C24.0037 100.228 24.426 98.3889 25.2704 96.8157C26.139 95.2425 27.3453 94.0323 28.8894 93.1852C30.4335 92.338 32.2069 91.9145 34.2094 91.9145C36.1637 91.9145 37.9008 92.3259 39.4208 93.1489C40.9408 93.9718 42.123 95.1457 42.9674 96.6705C43.836 98.1953 44.2703 99.9743 44.2703 102.007ZM37.937 100.374C37.937 99.3087 37.5751 98.4615 36.8513 97.8322C36.1275 97.203 35.2227 96.8883 34.137 96.8883C33.0996 96.8883 32.2189 97.1908 31.4951 97.7959C30.7954 98.401 30.3612 99.2602 30.1923 100.374H37.937Z" fill="#4B1C7C"/>
<path d="M73.3025 91.9871C75.8117 91.9871 77.8021 92.7495 79.2739 94.2743C80.7697 95.7991 81.5177 97.917 81.5177 100.628V112.463H75.3653V101.463C75.3653 100.156 75.0155 99.1513 74.3158 98.4494C73.6403 97.7233 72.6993 97.3603 71.493 97.3603C70.2866 97.3603 69.3336 97.7233 68.6339 98.4494C67.9584 99.1513 67.6206 100.156 67.6206 101.463V112.463H61.4683V101.463C61.4683 100.156 61.1184 99.1513 60.4188 98.4494C59.7432 97.7233 58.8023 97.3603 57.5959 97.3603C56.3896 97.3603 55.4366 97.7233 54.7369 98.4494C54.0613 99.1513 53.7236 100.156 53.7236 101.463V112.463H47.535V92.2049H53.7236V94.7463C54.3509 93.8992 55.1712 93.2336 56.1845 92.7495C57.1978 92.2412 58.3439 91.9871 59.6226 91.9871C61.1426 91.9871 62.4937 92.3138 63.6759 92.9673C64.8822 93.6208 65.8232 94.5527 66.4987 95.7628C67.1984 94.6495 68.1514 93.7419 69.3578 93.04C70.5641 92.338 71.879 91.9871 73.3025 91.9871Z" fill="#4B1C7C"/>
<path d="M108.573 112.463H102.385L92.0343 96.7431V112.463H85.8458V86.977H92.0343L102.385 102.77V86.977H108.573V112.463Z" fill="#4B1C7C"/>
<path d="M133 92.2049V112.463H126.811V109.704C126.184 110.6 125.328 111.326 124.242 111.882C123.18 112.415 121.998 112.681 120.695 112.681C119.151 112.681 117.788 112.342 116.606 111.665C115.424 110.963 114.507 109.958 113.855 108.651C113.204 107.344 112.878 105.807 112.878 104.04V92.2049H119.031V103.205C119.031 104.561 119.38 105.614 120.08 106.364C120.78 107.114 121.721 107.489 122.903 107.489C124.109 107.489 125.062 107.114 125.762 106.364C126.462 105.614 126.811 104.561 126.811 103.205V92.2049H133Z" fill="#4B1C7C"/>
<path d="M3.39234 116.594C4.10912 116.594 4.73548 116.737 5.27145 117.022C5.80741 117.307 6.22069 117.708 6.51127 118.226C6.80831 118.738 6.95683 119.331 6.95683 120.005C6.95683 120.672 6.80831 121.265 6.51127 121.783C6.22069 122.301 5.80418 122.703 5.26176 122.988C4.7258 123.273 4.10266 123.415 3.39234 123.415H0.844898V116.594H3.39234ZM3.2858 121.977C3.91216 121.977 4.3997 121.806 4.7484 121.462C5.0971 121.119 5.27145 120.633 5.27145 120.005C5.27145 119.376 5.0971 118.887 4.7484 118.537C4.3997 118.188 3.91216 118.013 3.2858 118.013H2.50122V121.977H3.2858Z" fill="#4B1C7C"/>
<path d="M8.65523 117.43C8.36465 117.43 8.12572 117.345 7.93846 117.177C7.75765 117.002 7.66725 116.788 7.66725 116.536C7.66725 116.277 7.75765 116.063 7.93846 115.894C8.12572 115.72 8.36465 115.632 8.65523 115.632C8.93936 115.632 9.17182 115.72 9.35263 115.894C9.53989 116.063 9.63353 116.277 9.63353 116.536C9.63353 116.788 9.53989 117.002 9.35263 117.177C9.17182 117.345 8.93936 117.43 8.65523 117.43ZM9.47855 117.993V123.415H7.82223V117.993H9.47855Z" fill="#4B1C7C"/>
<path d="M12.8174 123.493C12.346 123.493 11.9263 123.412 11.5582 123.25C11.1901 123.088 10.8995 122.868 10.6864 122.589C10.4733 122.304 10.3539 121.987 10.3281 121.637H11.965C11.9844 121.825 12.0716 121.977 12.2265 122.094C12.3815 122.21 12.572 122.269 12.798 122.269C13.0046 122.269 13.1629 122.23 13.2726 122.152C13.3889 122.068 13.447 121.961 13.447 121.831C13.447 121.676 13.3663 121.563 13.2048 121.491C13.0434 121.414 12.7819 121.329 12.4203 121.239C12.0328 121.148 11.7099 121.054 11.4516 120.957C11.1933 120.853 10.9706 120.695 10.7833 120.481C10.596 120.261 10.5024 119.966 10.5024 119.597C10.5024 119.286 10.5863 119.004 10.7542 118.751C10.9286 118.492 11.1804 118.288 11.5098 118.139C11.8455 117.99 12.2427 117.916 12.7011 117.916C13.3792 117.916 13.9119 118.084 14.2994 118.421C14.6933 118.758 14.9193 119.205 14.9774 119.762H13.447C13.4211 119.574 13.3372 119.425 13.1951 119.315C13.0595 119.205 12.8787 119.15 12.6527 119.15C12.459 119.15 12.3105 119.188 12.2072 119.266C12.1038 119.337 12.0522 119.438 12.0522 119.567C12.0522 119.723 12.1329 119.839 12.2943 119.917C12.4622 119.995 12.7205 120.073 13.0692 120.15C13.4696 120.254 13.7957 120.358 14.0475 120.461C14.2994 120.559 14.5189 120.72 14.7062 120.947C14.8999 121.167 15 121.465 15.0064 121.841C15.0064 122.159 14.916 122.444 14.7352 122.696C14.5609 122.942 14.3058 123.137 13.97 123.279C13.6407 123.422 13.2565 123.493 12.8174 123.493Z" fill="#4B1C7C"/>
<path d="M15.6302 120.704C15.6302 120.141 15.7432 119.648 15.9692 119.227C16.2017 118.806 16.5213 118.482 16.9282 118.256C17.3414 118.029 17.8128 117.916 18.3423 117.916C19.0203 117.916 19.5854 118.094 20.0374 118.45C20.4959 118.806 20.7961 119.308 20.9382 119.956H19.1753C19.0268 119.542 18.7395 119.334 18.3133 119.334C18.0098 119.334 17.7676 119.454 17.5868 119.694C17.406 119.927 17.3156 120.264 17.3156 120.704C17.3156 121.145 17.406 121.485 17.5868 121.725C17.7676 121.958 18.0098 122.074 18.3133 122.074C18.7395 122.074 19.0268 121.867 19.1753 121.452H20.9382C20.7961 122.087 20.4959 122.586 20.0374 122.949C19.5789 123.312 19.0139 123.493 18.3423 123.493C17.8128 123.493 17.3414 123.38 16.9282 123.153C16.5213 122.926 16.2017 122.602 15.9692 122.181C15.7432 121.76 15.6302 121.268 15.6302 120.704Z" fill="#4B1C7C"/>
<path d="M24.2242 123.493C23.6947 123.493 23.2169 123.38 22.7907 123.153C22.3709 122.926 22.0384 122.602 21.793 122.181C21.5541 121.76 21.4346 121.268 21.4346 120.704C21.4346 120.147 21.5573 119.658 21.8027 119.237C22.0481 118.809 22.3839 118.482 22.81 118.256C23.2362 118.029 23.7141 117.916 24.2436 117.916C24.7731 117.916 25.2509 118.029 25.6771 118.256C26.1033 118.482 26.4391 118.809 26.6845 119.237C26.9299 119.658 27.0526 120.147 27.0526 120.704C27.0526 121.261 26.9266 121.754 26.6748 122.181C26.4294 122.602 26.0904 122.926 25.6578 123.153C25.2316 123.38 24.7537 123.493 24.2242 123.493ZM24.2242 122.055C24.5406 122.055 24.8086 121.938 25.0282 121.705C25.2542 121.472 25.3672 121.138 25.3672 120.704C25.3672 120.27 25.2574 119.937 25.0378 119.703C24.8248 119.47 24.56 119.354 24.2436 119.354C23.9207 119.354 23.6527 119.47 23.4396 119.703C23.2265 119.93 23.12 120.264 23.12 120.704C23.12 121.138 23.2233 121.472 23.43 121.705C23.643 121.938 23.9078 122.055 24.2242 122.055Z" fill="#4B1C7C"/>
<path d="M30.3022 121.861L31.4743 117.993H33.2371L31.3193 123.415H29.2755L27.3577 117.993H29.1302L30.3022 121.861Z" fill="#4B1C7C"/>
<path d="M38.969 120.617C38.969 120.772 38.9593 120.934 38.9399 121.103H35.1914C35.2172 121.44 35.3238 121.699 35.511 121.88C35.7047 122.055 35.9404 122.142 36.2181 122.142C36.6314 122.142 36.9187 121.967 37.0802 121.618H38.843C38.7526 121.974 38.588 122.295 38.3491 122.58C38.1166 122.865 37.8228 123.088 37.4676 123.25C37.1125 123.412 36.7153 123.493 36.2762 123.493C35.7467 123.493 35.2753 123.38 34.8621 123.153C34.4488 122.926 34.1259 122.602 33.8934 122.181C33.661 121.76 33.5447 121.268 33.5447 120.704C33.5447 120.141 33.6578 119.648 33.8838 119.227C34.1162 118.806 34.4391 118.482 34.8524 118.256C35.2656 118.029 35.7403 117.916 36.2762 117.916C36.7993 117.916 37.2642 118.026 37.671 118.246C38.0778 118.466 38.3943 118.78 38.6203 119.188C38.8527 119.597 38.969 120.073 38.969 120.617ZM37.2739 120.18C37.2739 119.895 37.177 119.668 36.9833 119.499C36.7896 119.331 36.5474 119.247 36.2569 119.247C35.9792 119.247 35.7435 119.328 35.5498 119.49C35.3625 119.652 35.2463 119.882 35.2011 120.18H37.2739Z" fill="#4B1C7C"/>
<path d="M41.4389 118.897C41.6326 118.599 41.8747 118.366 42.1653 118.197C42.4559 118.022 42.7788 117.935 43.1339 117.935V119.694H42.6787C42.2654 119.694 41.9554 119.784 41.7488 119.966C41.5422 120.141 41.4389 120.452 41.4389 120.899V123.415H39.7825V117.993H41.4389V118.897Z" fill="#4B1C7C"/>
<path d="M49.3475 120.041C49.3475 120.489 48.9861 120.851 48.5403 120.851C48.0946 120.851 47.7332 120.489 47.7332 120.041C47.7332 119.594 48.0946 119.232 48.5403 119.232C48.9861 119.232 49.3475 119.594 49.3475 120.041Z" fill="#4B1C7C"/>
<path d="M53.9721 119.995C53.9721 119.321 54.1174 118.722 54.408 118.197C54.6986 117.666 55.1021 117.255 55.6187 116.963C56.1418 116.665 56.7326 116.516 57.3913 116.516C58.1985 116.516 58.8894 116.73 59.4641 117.158C60.0388 117.585 60.423 118.168 60.6168 118.907H58.7958C58.6602 118.622 58.4665 118.405 58.2146 118.256C57.9692 118.107 57.6883 118.032 57.3719 118.032C56.8618 118.032 56.4485 118.21 56.1321 118.567C55.8157 118.923 55.6575 119.399 55.6575 119.995C55.6575 120.591 55.8157 121.067 56.1321 121.423C56.4485 121.78 56.8618 121.958 57.3719 121.958C57.6883 121.958 57.9692 121.883 58.2146 121.734C58.4665 121.585 58.6602 121.368 58.7958 121.083H60.6168C60.423 121.822 60.0388 122.405 59.4641 122.832C58.8894 123.253 58.1985 123.464 57.3913 123.464C56.7326 123.464 56.1418 123.318 55.6187 123.027C55.1021 122.729 54.6986 122.317 54.408 121.793C54.1174 121.268 53.9721 120.669 53.9721 119.995Z" fill="#4B1C7C"/>
<path d="M64.0311 123.493C63.5016 123.493 63.0238 123.38 62.5976 123.153C62.1778 122.926 61.8453 122.602 61.5999 122.181C61.361 121.76 61.2415 121.268 61.2415 120.704C61.2415 120.147 61.3642 119.658 61.6096 119.237C61.855 118.809 62.1908 118.482 62.617 118.256C63.0431 118.029 63.521 117.916 64.0505 117.916C64.58 117.916 65.0579 118.029 65.484 118.256C65.9102 118.482 66.246 118.809 66.4914 119.237C66.7368 119.658 66.8595 120.147 66.8595 120.704C66.8595 121.261 66.7335 121.754 66.4817 122.181C66.2363 122.602 65.8973 122.926 65.4647 123.153C65.0385 123.38 64.5606 123.493 64.0311 123.493ZM64.0311 122.055C64.3475 122.055 64.6155 121.938 64.8351 121.705C65.0611 121.472 65.1741 121.138 65.1741 120.704C65.1741 120.27 65.0643 119.937 64.8448 119.703C64.6317 119.47 64.3669 119.354 64.0505 119.354C63.7276 119.354 63.4596 119.47 63.2465 119.703C63.0335 119.93 62.9269 120.264 62.9269 120.704C62.9269 121.138 63.0302 121.472 63.2369 121.705C63.45 121.938 63.7147 122.055 64.0311 122.055Z" fill="#4B1C7C"/>
<path d="M70.9712 117.935C71.604 117.935 72.1077 118.142 72.4822 118.557C72.8632 118.965 73.0537 119.529 73.0537 120.248V123.415H71.4071V120.471C71.4071 120.108 71.3135 119.827 71.1262 119.626C70.9389 119.425 70.6871 119.324 70.3707 119.324C70.0543 119.324 69.8024 119.425 69.6152 119.626C69.4279 119.827 69.3343 120.108 69.3343 120.471V123.415H67.6779V117.993H69.3343V118.712C69.5022 118.473 69.7282 118.285 70.0123 118.149C70.2964 118.006 70.6161 117.935 70.9712 117.935Z" fill="#4B1C7C"/>
<path d="M77.4378 117.935C78.0706 117.935 78.5743 118.142 78.9488 118.557C79.3298 118.965 79.5203 119.529 79.5203 120.248V123.415H77.8736V120.471C77.8736 120.108 77.78 119.827 77.5927 119.626C77.4055 119.425 77.1536 119.324 76.8372 119.324C76.5208 119.324 76.269 119.425 76.0817 119.626C75.8944 119.827 75.8008 120.108 75.8008 120.471V123.415H74.1445V117.993H75.8008V118.712C75.9687 118.473 76.1947 118.285 76.4788 118.149C76.763 118.006 77.0826 117.935 77.4378 117.935Z" fill="#4B1C7C"/>
<path d="M85.7059 120.617C85.7059 120.772 85.6962 120.934 85.6769 121.103H81.9283C81.9542 121.44 82.0607 121.699 82.248 121.88C82.4417 122.055 82.6774 122.142 82.9551 122.142C83.3683 122.142 83.6557 121.967 83.8171 121.618H85.58C85.4896 121.974 85.3249 122.295 85.086 122.58C84.8535 122.865 84.5597 123.088 84.2046 123.25C83.8494 123.412 83.4523 123.493 83.0132 123.493C82.4837 123.493 82.0123 123.38 81.599 123.153C81.1857 122.926 80.8629 122.602 80.6304 122.181C80.3979 121.76 80.2817 121.268 80.2817 120.704C80.2817 120.141 80.3947 119.648 80.6207 119.227C80.8532 118.806 81.176 118.482 81.5893 118.256C82.0026 118.029 82.4772 117.916 83.0132 117.916C83.5362 117.916 84.0012 118.026 84.408 118.246C84.8148 118.466 85.1312 118.78 85.3572 119.188C85.5897 119.597 85.7059 120.073 85.7059 120.617ZM84.0108 120.18C84.0108 119.895 83.914 119.668 83.7203 119.499C83.5265 119.331 83.2844 119.247 82.9938 119.247C82.7161 119.247 82.4804 119.328 82.2867 119.49C82.0994 119.652 81.9832 119.882 81.938 120.18H84.0108Z" fill="#4B1C7C"/>
<path d="M86.1901 120.704C86.1901 120.141 86.3031 119.648 86.5292 119.227C86.7616 118.806 87.0813 118.482 87.4881 118.256C87.9014 118.029 88.3727 117.916 88.9023 117.916C89.5803 117.916 90.1453 118.094 90.5973 118.45C91.0558 118.806 91.3561 119.308 91.4981 119.956H89.7353C89.5867 119.542 89.2994 119.334 88.8732 119.334C88.5697 119.334 88.3275 119.454 88.1467 119.694C87.9659 119.927 87.8755 120.264 87.8755 120.704C87.8755 121.145 87.9659 121.485 88.1467 121.725C88.3275 121.958 88.5697 122.074 88.8732 122.074C89.2994 122.074 89.5867 121.867 89.7353 121.452H91.4981C91.3561 122.087 91.0558 122.586 90.5973 122.949C90.1388 123.312 89.5738 123.493 88.9023 123.493C88.3727 123.493 87.9014 123.38 87.4881 123.153C87.0813 122.926 86.7616 122.602 86.5292 122.181C86.3031 121.76 86.1901 121.268 86.1901 120.704Z" fill="#4B1C7C"/>
<path d="M95.3362 122.006V123.415H94.4936C93.893 123.415 93.4249 123.27 93.0891 122.978C92.7533 122.68 92.5854 122.197 92.5854 121.53V119.373H91.9267V117.993H92.5854V116.672H94.2417V117.993H95.3266V119.373H94.2417V121.55C94.2417 121.712 94.2805 121.828 94.358 121.899C94.4354 121.971 94.5646 122.006 94.7454 122.006H95.3362Z" fill="#4B1C7C"/>
<path d="M101.679 120.041C101.679 120.489 101.318 120.851 100.872 120.851C100.426 120.851 100.065 120.489 100.065 120.041C100.065 119.594 100.426 119.232 100.872 119.232C101.318 119.232 101.679 119.594 101.679 120.041Z" fill="#4B1C7C"/>
<path d="M108.241 117.925V119.305H110.459V120.588H108.241V122.084H110.75V123.415H106.585V116.594H110.75V117.925H108.241Z" fill="#4B1C7C"/>
<path d="M115.058 117.935C115.691 117.935 116.195 118.142 116.569 118.557C116.95 118.965 117.141 119.529 117.141 120.248V123.415H115.494V120.471C115.494 120.108 115.4 119.827 115.213 119.626C115.026 119.425 114.774 119.324 114.458 119.324C114.141 119.324 113.889 119.425 113.702 119.626C113.515 119.827 113.421 120.108 113.421 120.471V123.415H111.765V117.993H113.421V118.712C113.589 118.473 113.815 118.285 114.099 118.149C114.383 118.006 114.703 117.935 115.058 117.935Z" fill="#4B1C7C"/>
<path d="M119.055 117.43C118.764 117.43 118.525 117.345 118.338 117.177C118.157 117.002 118.067 116.788 118.067 116.536C118.067 116.277 118.157 116.063 118.338 115.894C118.525 115.72 118.764 115.632 119.055 115.632C119.339 115.632 119.571 115.72 119.752 115.894C119.939 116.063 120.033 116.277 120.033 116.536C120.033 116.788 119.939 117.002 119.752 117.177C119.571 117.345 119.339 117.43 119.055 117.43ZM119.888 124.115C119.888 124.782 119.72 125.262 119.384 125.553C119.048 125.851 118.58 126 117.98 126H117.331V124.591H117.728C117.909 124.591 118.038 124.555 118.115 124.484C118.193 124.413 118.232 124.296 118.232 124.134V117.993H119.888V124.115Z" fill="#4B1C7C"/>
<path d="M123.479 123.493C122.949 123.493 122.471 123.38 122.045 123.153C121.625 122.926 121.293 122.602 121.048 122.181C120.809 121.76 120.689 121.268 120.689 120.704C120.689 120.147 120.812 119.658 121.057 119.237C121.303 118.809 121.638 118.482 122.065 118.256C122.491 118.029 122.969 117.916 123.498 117.916C124.028 117.916 124.505 118.029 124.932 118.256C125.358 118.482 125.694 118.809 125.939 119.237C126.184 119.658 126.307 120.147 126.307 120.704C126.307 121.261 126.181 121.754 125.929 122.181C125.684 122.602 125.345 122.926 124.912 123.153C124.486 123.38 124.008 123.493 123.479 123.493ZM123.479 122.055C123.795 122.055 124.063 121.938 124.283 121.705C124.509 121.472 124.622 121.138 124.622 120.704C124.622 120.27 124.512 119.937 124.292 119.703C124.079 119.47 123.815 119.354 123.498 119.354C123.175 119.354 122.907 119.47 122.694 119.703C122.481 119.93 122.375 120.264 122.375 120.704C122.375 121.138 122.478 121.472 122.684 121.705C122.898 121.938 123.162 122.055 123.479 122.055Z" fill="#4B1C7C"/>
<path d="M132.647 117.993L129.256 125.99H127.474L128.714 123.231L126.515 117.993H128.365L129.615 121.384L130.855 117.993H132.647Z" fill="#4B1C7C"/>
</svg>
